<svg style="position:absolute;width:0;height:0" xmlns="http://www.w3.org/2000/svg" overflow="hidden">
  <defs>
    <symbol id="icon-logo" viewBox="0 0 250.7 56.8" xmlns="http://www.w3.org/2000/svg" xmlns:xlink="http://www.w3.org/1999/xlink">
      <title id="logo-title">Guru</title>
      <path fill="currentColor" d="M162.4 9.2v16.1c0 5.5-6.6 10.1-14.5 10.1s-14.5-4.6-14.5-10.1V9.4h-5.9v15.8c0 8.8 9.2 16 20.4 16 11.3 0 20.4-7.2 20.4-16v-16h-5.9zM244.8 9.2v16.1c0 5.5-6.6 10.1-14.5 10.1s-14.5-4.6-14.5-10.1V9.4h-5.9v15.8c0 8.8 9.2 16 20.4 16 11.3 0 20.4-7.2 20.4-16v-16h-5.9zM178.6 41.3h-5.9V9.2h5.9v13c9.2-12 26-13 26.2-13l.3 5.9c-1.1.1-26.5 1.6-26.5 26.2zM118 9.2V14c-3.7-2.9-8.8-4.8-14.5-4.8-11.3 0-20.4 7.2-20.4 16s9.2 16 20.4 16c5.7 0 10.8-1.8 14.5-4.8v4.3c0 5.5-6.6 10.1-14.5 10.1-6.3 0-11.8-3-13.7-7l-5.7 1.8c2.6 6.5 10.4 11.2 19.4 11.2 11 0 20-6.9 20.4-15.5V9.2H118zm-14.5 26.1c-7.9 0-14.5-4.6-14.5-10.1s6.6-10.1 14.5-10.1S118 19.7 118 25.2s-6.6 10.1-14.5 10.1zM46.6 33.9c2.8.7 5.5 1.6 8.1 2.9 2.6 1.2 4.9 2.7 7.1 4.4 2.2 1.7 4.2 3.6 6.1 5.7 1.9 2.1 3.5 4.3 4.9 6.8H62.3c-1.6-1.9-3.3-3.6-5.2-5.1-1.9-1.5-4-2.8-6.2-3.9s-4.5-1.9-6.9-2.5c-2.4-.6-4.9-.9-7.6-.9-2.7 0-5.2.3-7.7.9-2.5.6-4.8 1.4-6.9 2.5-2.2 1.1-4.2 2.4-6.1 3.9-1.9 1.5-3.7 3.2-5.2 5.1H0c1.4-2.5 3-4.7 4.9-6.9 1.9-2.1 3.9-4 6.2-5.7 2.3-1.7 4.7-3.1 7.2-4.3 2.6-1.2 5.3-2.2 8.1-2.9-2.5-.6-4.8-1.4-6.9-2.4-2.2-1-4.2-2.2-6.2-3.6S9.5 25 7.8 23.3c-1.7-1.7-3.2-3.6-4.6-5.5.7-1.1 1.4-2.1 2.3-3.1.8-1 1.7-1.9 2.6-2.8S9.9 10 11 9.2c1-.8 2-1.6 3-2.3.1-.9.3-1.7.7-2.4.4-.7.9-1.4 1.5-2 .6-.6 1.3-1.1 2.1-1.4.8-.3 1.6-.5 2.5-.5 1 0 1.9.2 2.7.6.8.4 1.6.9 2.2 1.5.6.6 1.2 1.4 1.5 2.2.6.9.8 1.8.8 2.8 0 1-.2 1.9-.6 2.7-.4.8-.9 1.6-1.5 2.2-.6.6-1.4 1.1-2.2 1.5-.8.3-1.7.5-2.7.5h-.7c-.2 0-.5 0-.7-.1-.2 0-.4-.1-.7-.2-.2-.1-.5-.2-.7-.3-.4.3-.8.6-1.1.9-.3.3-.7.6-1.1.9-.4.3-.8.6-1.1.9-.3.3-.7.6-1 1 1.5 1.4 3 2.7 4.7 3.8 1.7 1.2 3.5 2.2 5.4 2.9 1.9.8 3.9 1.4 6 1.8 2.1.4 4.3.7 6.4.7 2.2 0 4.3-.2 6.4-.7 2.1-.4 4.1-1.1 6-1.8 1.9-.8 3.7-1.8 5.4-2.9 1.7-1.2 3.2-2.5 4.7-3.8h.1v-.3-.3-.3-.3c0-1 .2-1.9.5-2.8.3-.9.9-1.7 1.5-2.4.7-.7 1.5-1.2 2.4-1.5.9-.3 1.8-.5 2.8-.5 1 0 1.9.2 2.8.5.9.3 1.6.9 2.3 1.5.6.7 1.2 1.5 1.5 2.4.4.9.6 1.8.6 2.8 0 1-.2 1.9-.6 2.8-.4.9-.9 1.6-1.5 2.3-.6.6-1.4 1.2-2.3 1.5-.9.4-1.8.6-2.8.6h-.8c-.1 0-.3 0-.4-.1-.1 0-.2-.1-.4-.1-1.2 1.2-2.5 2.3-3.9 3.4s-2.9 2.1-4.4 2.9c-1.5.9-3.1 1.7-4.8 2.4-1.4.8-3.2 1.3-4.9 1.7z"></path>
      <path fill="currentColor" id="arch" d="M32 8.7v-.3-.3-.3-.3c0-.6-.1-1.2-.1-1.8-.1-.6-.2-1.3-.4-1.8-.2-.6-.5-1.2-.8-1.7-.3-.5-.7-1.1-1-1.5.5-.1 1-.2 1.6-.2.6 0 1.2-.1 1.8-.1.6 0 1.2-.1 1.8-.1.5-.3 1.1-.3 1.6-.3 2.2 0 4.3.2 6.4.5C45 .8 47 1.3 49 2c2 .6 3.9 1.4 5.7 2.4 1.8.9 3.6 2 5.2 3.2-.6.4-1.1.9-1.6 1.4-.5.5-.9 1.1-1.3 1.7-.3.6-.7 1.2-1 1.9-.3.7-.5 1.4-.6 2.1-1.3-1-2.7-1.9-4.2-2.7-1.5-.8-3.1-1.4-4.6-2-1.6-.5-3.2-.9-4.9-1.2-1.7-.2-3.5-.4-5.2-.4h-2.4c-.4 0-.8 0-1.1.1-.3 0-.6.1-1 .2z"></path>
      <path fill="currentColor" d="M29.9 18.3c0-1 .2-1.9.6-2.7.4-.8.9-1.6 1.5-2.2.6-.6 1.4-1.2 2.2-1.5.8-.4 1.7-.6 2.7-.6 1 0 1.9.2 2.8.6.9.4 1.6.9 2.3 1.5.6.6 1.1 1.4 1.5 2.2.3.8.5 1.7.5 2.7 0 1-.2 1.9-.5 2.7-.3.8-.8 1.6-1.5 2.2-.6.6-1.4 1.2-2.3 1.5-.9.4-1.8.6-2.8.6-1 0-1.9-.2-2.7-.6-.8-.4-1.6-.9-2.2-1.5-.6-.6-1.2-1.4-1.5-2.2-.4-.8-.6-1.7-.6-2.7z"></path>
    </symbol>
    
    <symbol id="icon-menu" viewBox="0 0 24 24">
      <path d="M3 18h18v-2H3v2zm0-5h18v-2H3v2zm0-7v2h18V6H3z"></path>
    </symbol>
    <symbol id="icon-facebook" viewBox="0 0 512 512">
      <path d="M211.9 197.4h-36.7v59.9h36.7v175.8h70.5V256.5h49.2l5.2-59.1h-54.4v-33.7c0-13.9 2.8-19.5 16.3-19.5h38.2V82.9h-48.8c-52.5 0-76.1 23.1-76.1 67.3-.1 38.6-.1 47.2-.1 47.2z"></path>
    </symbol>
    <symbol id="icon-twitter" viewBox="0 0 512 512">
      <path d="M419.6 168.6c-11.7 5.2-24.2 8.7-37.4 10.2 13.4-8.1 23.8-20.8 28.6-36-12.6 7.5-26.5 12.9-41.3 15.8C357.6 146 340.7 138 322 138c-42 0-72.9 39.2-63.4 79.9-54.1-2.7-102.1-28.6-134.2-68-17 29.2-8.8 67.5 20.1 86.9-10.7-.3-20.7-3.3-29.5-8.1-.7 30.2 20.9 58.4 52.2 64.6-9.2 2.5-19.2 3.1-29.4 1.1 8.3 25.9 32.3 44.7 60.8 45.2-27.4 21.4-61.8 31-96.4 27 28.8 18.5 63 29.2 99.8 29.2 120.8 0 189.1-102.1 185-193.6 12.9-9.1 23.9-20.5 32.6-33.6z"></path>
    </symbol>
    <symbol id="icon-google" viewBox="0 0 512 512">
      <path d="M179.7 237.6v46.6h77c-3.1 20-23.3 58.7-77 58.7-46.3 0-84.1-38.5-84.1-85.9 0-47.4 37.8-85.9 84.1-85.9 26.4 0 44 11.3 54.1 21l36.8-35.5C247 134.4 216.4 121 179.7 121 104.7 121 44 181.8 44 257s60.7 136 135.7 136C258 393 310 337.8 310 260.1c0-8.9-1-15.7-2.1-22.5H179.7zm288.3-.9h-38.7V198h-38.6v38.7H352v38.6h38.7V314h38.6v-38.7H468"></path>
    </symbol>
    <symbol id="icon-linkedin" viewBox="0 0 512 512">
      <path d="M186.4 142.4c0 19-15.3 34.5-34.2 34.5-18.9 0-34.2-15.4-34.2-34.5 0-19 15.3-34.5 34.2-34.5 18.9 0 34.2 15.5 34.2 34.5zm-5 58.9h-57.8v186.8h57.8V201.3zm92.4 0h-55.4v186.8h55.4v-98c0-26.3 12.1-41.9 35.2-41.9 21.3 0 31.5 15 31.5 41.9v98H398V269.8c0-50-28.3-74.2-68-74.2-39.6 0-56.3 30.9-56.3 30.9v-25.2h.1z"></path>
    </symbol>

    <symbol id="icon-signup" viewBox="0 0 15 15">
      <path d="M13.6 9.6c-.2 0-.3.2-.3.4v3.2c0 .6-.5 1-1.1 1H1.8a1 1 0 0 1-1-1V3.8c0-.6.4-1 1-1h3.3c.2 0 .4-.2.4-.4S5.3 2 5 2H1.8C.8 2 0 2.8 0 3.8v9.4c0 1 .8 1.8 1.8 1.8h10.4c1 0 1.8-.8 1.8-1.8V10c0-.2-.2-.4-.4-.4z"/>
      <path d="M14 .5c-.6-.7-1.7-.7-2.3 0L5 7.2l-.1.1-.9 3.2a.4.4 0 0 0 .5.5l3.2-.9h.1l6.7-6.8c.7-.6.7-1.7 0-2.4l-.4-.4zm-8.2 7L11.3 2 13 3.7 7.6 9.2 5.8 7.4zm-.3.6l1.4 1.4-2 .6.6-2zM14 2.8l-.4.4-1.8-1.8.4-.4a1 1 0 0 1 1.3 0l.5.5c.3.3.3 1 0 1.3z"/>    
    </symbol>
    
    <symbol id="icon-login"  viewBox="0 0 17 15">
      <path fill="currentColor" d="M15.1 0H9C7.9 0 7 .8 7 1.8v1.6c0 .2.2.4.5.4.2 0 .4-.2.4-.4V1.8c0-.5.5-.9 1-1H15c.6 0 1 .5 1 1v11.4c0 .3-.1.5-.3.7a1 1 0 0 1-.7.2H9a1 1 0 0 1-1-.9v-1.5c0-.3-.2-.5-.4-.5-.3 0-.5.2-.5.5v1.5c0 1 .8 1.8 1.9 1.8h6c1 0 1.9-.8 1.9-1.8V1.8c0-1-.8-1.8-1.9-1.8z"/>
      <path fill="currentColor" d="M11.4 6.8H.4c-.2 0-.4.2-.4.5 0 .2.2.4.5.4h11l-2.4 2.6v.6c.3.2.6.1.7 0l3-3.3.2-.3-.1-.3-3-2.9-.4-.1-.3.1-.2.3c0 .1 0 .2.2.3l2.2 2.1z"/>
    </symbol>

    <!-- category -->
    <symbol id="icon-cat-1" viewBox="0 0 45 45">
      <title>Programming &amp; Development</title>
      <path d="M35.5 1h-27C6.5 1 5 2.6 5 4.6v19.2c0 2 1.6 3.6 3.5 3.6h9.7l-1 3.5H15v1.4h14.2V31h-2.3l-1-3.5h9.7c2 0 3.5-1.6 3.5-3.6V4.6c0-2-1.6-3.6-3.5-3.6zM18.7 31l1-3.6h4.6l1 3.5h-6.6zm18.9-7.2c0 1.2-1 2.1-2.1 2.1h-27c-1.1 0-2-1-2-2.1v-1.4h31v1.4zm0-2.9H6.4V4.6c0-1.2 1-2.2 2.1-2.2h27c1.1 0 2 1 2 2.2v16.3zm-9.9 12.9H7.8c-.4 0-.7.3-.7.7V43c0 .4.3.7.7.7h19.9c.4 0 .7-.3.7-.7v-8.5c0-.4-.3-.7-.7-.7zm-.7 8.5H8.5v-7.1H27v7.1zm-17-2.8h1.4v1.4H10zm0-2.9h1.4V38H10zm2.8 0h1.4V38h-1.4zm2.8 0H17V38h-1.4zm5.7 0h1.4V38h-1.4zm-2.8 0h1.4V38h-1.4zm5.6 2.9h1.4v1.4h-1.4zm0-2.9h1.4V38h-1.4zm-11.3 2.9h9.9v1.4h-9.9zm20.5-5.7c-2 0-3.5 1.6-3.5 3.5v2.9c0 2 1.6 3.5 3.5 3.5 2 0 3.6-1.6 3.6-3.5v-2.9c0-2-1.6-3.5-3.6-3.5zm2.2 6.4c0 1.2-1 2.1-2.2 2.1-1.1 0-2-1-2-2.1v-2.9c0-1.1.9-2.1 2-2.1 1.2 0 2.2 1 2.2 2.1v2.9zm-2.9-3.6H34V38h-1.4zM19.9 17.2l2.8-10 1.4.4-2.9 10zm-1.7-7.8l-3.6 3 3.6 3-.9 1.1L13 13a.7.7 0 010-1l4.3-3.6.9 1zM31 11.9c.3.3.3.8 0 1l-4.3 3.6-.9-1 3.6-3.1-3.6-3 .9-1.1 4.3 3.6z"/>    
    </symbol>
    <symbol id="icon-cat-2" viewBox="0 0 45 45">
      <title>Design &amp; Art</title>
      <path d="M37.37 32.07a9.18 9.18 0 00-.01-3.49l3.13-7.55V21c.5-1.38 1.25-2.68 2.2-3.81.23-.25.33-.6.25-.93l-1.29-5.55a.67.67 0 00-.06-.16l-.02-.03-.04-.05a.69.69 0 00-.1-.12.63.63 0 00-.07-.04.7.7 0 00-.1-.07.68.68 0 00-.17-.03l-.04-.02a.68.68 0 00-.38.09l-.03.01-4.83 3.01c-.3.18-.48.5-.49.84a12.83 12.83 0 01-1.14 4.26v.01L32.6 22.2c-.77-.4-1.59-.7-2.44-.88.32-2.22.44-4.47.35-6.72a7.46 7.46 0 001.7-5.47c-.43-3.99-4.03-6.86-4.18-6.98a.68.68 0 00-1.08.7c.35 1.33.04 2.73-2.55 5.6a4 4 0 00-.94 4.35c.23.58.56 1.11.97 1.57-.16 1.06-.3 2.06-.38 3.03-.16 1.61-.2 3.23-.12 4.85a9.3 9.3 0 00-1.7 1.18L18.92 9.26l-.02-.04a.65.65 0 00-.04-.13l-3.39-6.25a1.58 1.58 0 00-2.96.7l-.26 7.1c0 .05 0 .1.02.15v.03l3.38 14.43a7.7 7.7 0 00-1.58.24l-3.72-8.99a1.38 1.38 0 00-1.78-.73l-5.69 2.36a1.37 1.37 0 00-.74 1.78L7.2 32.08A5.46 5.46 0 007.47 43h30.06a5.47 5.47 0 10-.16-10.93zm-.7-17.7l2.87-1.78-1.01 2.45a.68.68 0 001.26.52l1.02-2.44.75 3.28c-.8 1-1.47 2.1-1.98 3.28a2.81 2.81 0 01-3.82-1.58c.48-1.2.8-2.44.92-3.72zm-1.56 5.37a4.1 4.1 0 001.7 1.24 4.34 4.34 0 002.09.33l-2.18 5.26a9.27 9.27 0 00-2.94-3.62l1.33-3.2zm-9.36-4.88l3.43.21c.02.64.01 1.3 0 1.97-1.15.08-2.3.03-3.43-.16l-.26-.04c.07-.64.15-1.3.25-1.98zm-.33-5.5c1.81-2 2.75-3.54 2.97-4.99a9.14 9.14 0 012.47 4.9 6.2 6.2 0 01-1.38 4.45l-4.01-.25a2.85 2.85 0 01-.05-4.1zm-.05 8.85l.2.02c.88.14 1.76.21 2.66.23.28 0 .58-.03.88-.05a49 49 0 01-.3 2.75c-.17-.01-.33-.03-.5-.03-1.03 0-2.06.18-3.03.52-.03-1.15 0-2.3.09-3.44zm-5.29 7.99l-1.95-8.33a.68.68 0 00-1.33.31l1.75 7.5c-.48-.18-.98-.3-1.49-.38l-3-12.8c.42.2.88.3 1.34.3l.13-.01.49 2.06a.68.68 0 101.33-.31l-.49-2.06c.47-.21.88-.52 1.2-.91L21.1 24.6c-.4.5-.74 1.03-1.03 1.6zm-4.17-14.83a2.27 2.27 0 01-2.29-.92l.1-2.4a4.02 4.02 0 001.4-.01c.47-.12.9-.34 1.27-.63l1.15 2.12c-.13.88-.77 1.6-1.63 1.84zm-1.88-7.98c.1-.03.2.02.24.1l1.46 2.71c-.26.24-.57.41-.92.51-.35.07-.7.05-1.05-.05l.11-3.08c0-.1.07-.17.16-.2zM9.1 17.03l.52 1.26-2.53 1.05a.68.68 0 00.53 1.26l2.53-1.04.52 1.26-1.27.52a.68.68 0 10.53 1.27l1.26-.53.53 1.26-2.54 1.05a.68.68 0 10.53 1.27l2.53-1.05.55 1.33a7.93 7.93 0 00-4.43 5.39L3.4 19.39l5.69-2.36zm28.44 24.6H7.47a4.1 4.1 0 111.17-8.03.68.68 0 00.88-.64A6.5 6.5 0 0119.9 27.9a.68.68 0 001.05-.3 7.86 7.86 0 0114.87 5.06.68.68 0 00.8.87 4.1 4.1 0 11.91 8.1zm-9.11-28.9c.22 0 .42-.1.55-.27a5.13 5.13 0 00.91-4.03.68.68 0 10-1.32.36 3.8 3.8 0 01-.68 2.84.68.68 0 00.55 1.1zm-.89 20.7a3.4 3.4 0 00-1.47.34 4.1 4.1 0 00-7.08 4.03.68.68 0 001.26-.54 2.73 2.73 0 015.03-2.2.7.7 0 00.03.08l.04.03.1.1.12.06.12.04.13.02c.09 0 .17-.02.26-.04l.05-.02a.62.62 0 00.07-.04.71.71 0 00.07-.04 2.05 2.05 0 013.13.74.68.68 0 001.24-.56 3.42 3.42 0 00-3.1-2zm-13.46-4.75c-.1.04-2.51.87-2.51 3.39a.68.68 0 001.36 0c.06-.96.69-1.78 1.59-2.09a.68.68 0 00-.44-1.3zm9.62-.73l.17.02a.7.7 0 00.66-.52 2.91 2.91 0 012.76-2.22.68.68 0 100-1.36 4.26 4.26 0 00-4.09 3.25.7.7 0 00.5.83z"/>    
    </symbol>
    
    <symbol id="icon-cat-3" viewBox="0 0 45 45">
      <title>Writing &amp; Translation</title>
      <path d="M42.3 5h-6.1V2.6c0-.4-.3-.7-.7-.7H10.4c-.4 0-.7.3-.7.7v2.2H3.6C2.7 5 2 5.6 2 6.5V36c0 .8.7 1.6 1.6 1.6h14.6v5h-6.3a.7.7 0 100 1.4H31a.7.7 0 100-1.3h-3.4v-5.1h2.8a.7.7 0 100-1.4h-27a.3.3 0 01-.2-.2V6.5l.3-.2h6.1v24.4H5.4a.7.7 0 100 1.3h25a.7.7 0 100-1.3h-5.2v-5.5c0-.4-.3-.7-.7-.7H14c-.4 0-.7.3-.7.7v5.5H11V3.3h23.7v6.1a.7.7 0 101.4 0V6.3h6.1c.2 0 .3 0 .3.2V36c0 .1-.1.2-.3.2h-1.7a.7.7 0 100 1.4h1.7c.9 0 1.6-.8 1.6-1.6V6.5c0-.9-.7-1.6-1.6-1.6zm-16 37.6h-6.8v-5.1h6.9v5zM14.7 25.9H24v4.8h-9.3v-4.8zM38.5 18v-.2l-2.4-6a.7.7 0 00-1.2 0l-2.4 6V41a3 3 0 006 0V18zm-4.7.7h3.4v19h-3.4v-19zm1.7-4.8l1.4 3.5h-2.8l1.4-3.5zm0 28.7c-1 0-1.7-.8-1.7-1.7V39h3.4v2c0 .9-.7 1.7-1.7 1.7zM14 11.6h18c.3 0 .6-.3.6-.7V6.2c0-.3-.3-.6-.7-.6H14c-.3 0-.6.3-.6.6V11c0 .4.3.7.7.7zm.6-4.7h16.7v3.4H14.6V6.9zM32 13H14a.7.7 0 100 1.3h18a.7.7 0 100-1.4zm-7.5 3.5H14a.7.7 0 100 1.4h10.5a.7.7 0 100-1.4zm6.1 0h-3.4a.7.7 0 100 1.4h3.4a.7.7 0 100-1.4zm-6.1 2.7H14a.7.7 0 100 1.3h10.5a.7.7 0 100-1.3zm6 0h-3.3a.7.7 0 100 1.3h3.3a.7.7 0 100-1.3zm-6 2.7H14a.7.7 0 100 1.3h10.5a.7.7 0 100-1.3zm6 0h-3.3a.7.7 0 100 1.3h3.3a.7.7 0 100-1.3z"/>    
    </symbol>
    
    <symbol id="icon-cat-4" viewBox="0 0 45 45">
      <title>Sales &amp; Marketing</title>
      <path d="M43.2 19.1h-5.3c-.4 0-.8.4-.8.8v4.2a.8.8 0 001.6 0v-3.3h3.7v21.6h-3.7V30.2a.8.8 0 00-1.6 0v12.2h-1.6v-17c0-.5-.4-.8-.9-.8h-5.2c-.5 0-.8.3-.8.8v17h-1.7V31c0-.4-.3-.8-.8-.8H21c-.5 0-.9.4-.9.8v11.3h-1.6v-6.6c0-.4-.4-.8-.8-.8h-5.3c-.4 0-.8.4-.8.8v6.6h-7a.8.8 0 01-.9-.9v-37c0-.5.4-.9.9-.9h21.1V9c0 1.3 1.1 2.4 2.5 2.4h5.4v10.1a.8.8 0 001.6 0V10.7c0-.2 0-.4-.2-.6l-8-7.9a.8.8 0 00-.6-.2h-22A2.5 2.5 0 002 4.5v37C2 43 3.1 44 4.5 44h38.7c.4 0 .8-.4.8-.8V19.9c0-.4-.4-.8-.8-.8zm-16-14.3l5.1 5h-4.2a.8.8 0 01-.8-.7V4.8zM16.9 42.4h-3.6v-5.8h3.6v5.8zm8.5 0h-3.6V31.9h3.6v10.5zm8.5 0h-3.6V26.2h3.6v16.2zm4.6-16a.8.8 0 00-1.2 0 .8.8 0 000 1.2.8.8 0 001.2 0 .8.8 0 000-1.2zM14 6.5c-.5 0-.9.4-.9.8v1.5a7.6 7.6 0 108.3 8.3H23c.5 0 .8-.4.8-.8 0-5.4-4.4-9.8-9.8-9.8zm0 15.7a6 6 0 01-.9-11.8v5.9c0 .4.4.8.8.8h5.9a6 6 0 01-5.9 5zm.8-6.7V8.2c3.8.4 6.9 3.4 7.3 7.3h-7.3zM23 26.1H7.1a.8.8 0 000 1.7H23a.8.8 0 000-1.7zm-10.5 4H7.2a.8.8 0 000 1.6h5.3a.8.8 0 000-1.6zm4.7.2a.8.8 0 00-1.2 0 .8.8 0 00.6 1.4.8.8 0 00.8-.8c0-.2 0-.4-.2-.6z"/>    
    </symbol>
    
    <symbol id="icon-cat-5" viewBox="0 0 45 45">
      <title>Administrative &amp; Secretarial</title>
      <path d="M44.4 19.3l-3.3-.5a.7.7 0 01-.6-.5l-.3-.7a.7.7 0 01.1-.8l2-2.6c.2-.3.2-.7-.1-1L39 10a.8.8 0 00-1 0l-2.6 2h-.7c-.3 0-.5-.2-.8-.3a.7.7 0 01-.4-.6L33 8c0-.4-.4-.7-.8-.6h-3.7c0-3-2.4-5.3-5.3-5.3H1.6C.7 2 0 2.7 0 3.5V41c0 .8.7 1.5 1.5 1.5h21.8c2.8 0 5.2-2.4 5.2-5.3h3.8c.3 0 .6-.2.7-.6l.5-3.2c0-.3.2-.5.4-.6l.8-.3h.7l2.6 2c.3.2.7.2 1 0l3.2-3.2c.3-.3.3-.7 0-1l-1.9-2.6a.7.7 0 010-.8l.2-.7c.1-.3.4-.5.6-.5l3.3-.5c.3 0 .6-.3.6-.7V20c0-.4-.3-.7-.6-.7zM27 23h-5.3V12.5H27V23zm-5.3 1.5H27v6.8c0 2-1.7 3.7-3.8 3.7h-1.4V24.5zm6.8-6.5l1.5-.3a4.5 4.5 0 11-1.5 8.8V18zM27 7.2V11h-5.3V3.5h1.6c2 0 3.7 1.7 3.7 3.8zm-6.8-3.7V35h-3V3.5h3zM1.6 35V24.5h14.3V35H1.4zm0-22.5h14.3V23H1.4V12.5zm14.3-9V11H1.4V3.5h14.3zM23.1 41H1.6v-1.5h21.8V38h-22v-1.5h21.8c1.4 0 2.7-.6 3.7-1.6v2.4c0 2-1.7 3.7-3.8 3.7zm20.3-17.1l-2.6.3c-.8.1-1.5.7-1.8 1.5l-.2.6c-.4.8-.3 1.6.2 2.3l1.6 2-2.3 2.3-2-1.5c-.7-.5-1.6-.6-2.3-.3l-.7.3c-.8.3-1.3 1-1.4 1.8l-.4 2.6h-3.1V28a6 6 0 100-11.7V8.8h3.1l.4 2.5c0 .8.6 1.5 1.4 1.8l.7.3c.7.3 1.6.2 2.2-.3l2.1-1.5 2.3 2.2L39 16c-.5.7-.6 1.5-.2 2.3l.2.6c.3.8 1 1.4 1.8 1.5l2.6.4V24z"/>
    </symbol>
    
    <symbol id="icon-cat-6" viewBox="0 0 45 45">
      <title>Engineering &amp; Architecture</title>
      <path d="M39.1 6.2a4.9 4.9 0 00-4.8 4.2h-8.5v1.4h8.4v27.3a.7.7 0 001.4 0 3.5 3.5 0 017 0v.1c0 1.9-1.5 3.4-3.4 3.4H3.4V28.1a19 19 0 0016.8 10.3.7.7 0 000-1.4 17 17 0 01-7.6-1.8l.5-1.6a2 2 0 001.8-1.5l2.3-8.6 1.6.2v.7a.7.7 0 001.4 0v-.7l1.6-.2L24 32a2 2 0 001.8 1.5l.6 2.2a.7.7 0 101.4-.4l-.6-2.1c.7-.5 1-1.4.8-2.3l-4.6-17.1c1.6-2.3 1-5.3-1.2-6.8V4.8a2.8 2.8 0 10-5.6 0v2.3a4.9 4.9 0 00-1.2 6.8L10.9 31a2 2 0 00.8 2.3l-.3 1.3a17.5 17.5 0 01-8-10.2V11.8h9.8v-1.4H2V44h37.2c2.7 0 4.8-2.1 4.8-4.8V11.1a5 5 0 00-4.9-4.9zm-18.9 16v-.6a.7.7 0 00-1.4 0v.7l-1.2-.2 1.6-6.1h.6l1.6 6.1-1.2.2zm6.6 9.2c0 .3-.1.7-.5.8h-.5a.7.7 0 01-.4-.5l-4.3-16a4 4 0 001.3-.7l4.4 16.4zM18 4.8a1.4 1.4 0 012.8 0v1.6c-1-.3-1.9-.3-2.8 0V4.8zm1.4 2.8a3.5 3.5 0 110 7 3.5 3.5 0 010-7zm-7.3 23.8L16.6 15l1.3.7-4.3 16c-.1.4-.5.6-.9.5a.7.7 0 01-.5-.8zm30.4 4.3a4.9 4.9 0 00-7 0V11a3.5 3.5 0 017 0v24.6zm-23-22.5a2.1 2.1 0 100-4.2 2.1 2.1 0 000 4.2zm0-2.8a.7.7 0 110 1.4.7.7 0 010-1.4z"/>    
    </symbol>
    
    <symbol id="icon-cat-7" viewBox="0 0 45 45">
      <title>Business &amp; Finance</title>
      <path d="M18.1 27.2a7 7 0 100 14 7 7 0 000-14zm0 12.6a5.6 5.6 0 110-11.2 5.6 5.6 0 010 11.2zm0-7.7c.9 0 1.4.4 1.4.7h1.4c0-1-.9-1.8-2.1-2V30h-1.4v.8c-1.2.2-2.1 1-2.1 2 0 1.2 1.2 2.1 2.8 2.1.9 0 1.4.4 1.4.7 0 .3-.5.7-1.4.7-.9 0-1.4-.4-1.4-.7h-1.4c0 1 .9 1.8 2.1 2v.8h1.4v-.8c1.2-.2 2.1-1 2.1-2 0-1.2-1.2-2.1-2.8-2.1-.9 0-1.4-.4-1.4-.7 0-.3.5-.7 1.4-.7zm19.6 10.5H8.3V25.8h11.2c1.2 0 2.1-1 2.1-2.1V6.2h7.7v8.4h8.4v9.8h1.4V13.6l-8.8-8.8h-8.7v-.7c0-1.2-1-2.1-2.1-2.1H4.1C2.9 2 2 3 2 4.1v19.6c0 1.2 1 2.1 2.1 2.1h2.8V44h32.2v-9.8h-1.4v8.4zm-7-35.4l6 6h-6v-6zM3.4 23.7V4.1c0-.4.3-.7.7-.7h15.4c.4 0 .7.3.7.7v19.6c0 .4-.3.7-.7.7H4.1a.7.7 0 01-.7-.7zm21-4.2h1.4v1.4h-1.4zm2.8 0h8.4v1.4h-8.4zm-2.8-2.8h1.4v1.4h-1.4zm2.8 0h8.4v1.4h-8.4zm-2.8 5.6h1.4v1.4h-1.4zm2.8 0h8.4v1.4h-8.4zm-2.8 2.8h1.4v1.4h-1.4zm2.8 0h8.4v1.4h-8.4zm-7.7-21H4.1V9h15.4V4.1zm-1.4 3.5H5.5V5.5h12.6v2.1zM7.6 9.7H6.2c-.8 0-1.4.6-1.4 1.4v1.4c0 .8.6 1.4 1.4 1.4h1.4c.8 0 1.4-.6 1.4-1.4v-1.4c0-.8-.6-1.4-1.4-1.4zm-1.4 2.8v-1.4h1.4v1.4H6.2zm6.3-2.8h-1.4c-.8 0-1.4.6-1.4 1.4v1.4c0 .8.6 1.4 1.4 1.4h1.4c.8 0 1.4-.6 1.4-1.4v-1.4c0-.8-.6-1.4-1.4-1.4zm-1.4 2.8v-1.4h1.4v1.4h-1.4zm6.3-2.8H16c-.8 0-1.4.6-1.4 1.4v1.4c0 .8.6 1.4 1.4 1.4h1.4c.8 0 1.4-.6 1.4-1.4v-1.4c0-.8-.6-1.4-1.4-1.4zM16 12.5v-1.4h1.4v1.4H16zm-8.4 2.1H6.2c-.8 0-1.4.6-1.4 1.4v1.4c0 .8.6 1.4 1.4 1.4h1.4c.8 0 1.4-.6 1.4-1.4V16c0-.8-.6-1.4-1.4-1.4zm-1.4 2.8V16h1.4v1.4H6.2zm6.3-2.8h-1.4c-.8 0-1.4.6-1.4 1.4v1.4c0 .8.6 1.4 1.4 1.4h1.4c.8 0 1.4-.6 1.4-1.4V16c0-.8-.6-1.4-1.4-1.4zm-1.4 2.8V16h1.4v1.4h-1.4zm6.3-2.8H16c-.8 0-1.4.6-1.4 1.4v1.4c0 .8.6 1.4 1.4 1.4h1.4c.8 0 1.4-.6 1.4-1.4V16c0-.8-.6-1.4-1.4-1.4zM16 17.4V16h1.4v1.4H16zm-8.4 2.1H6.2c-.8 0-1.4.6-1.4 1.4v1.4c0 .8.6 1.4 1.4 1.4h1.4c.8 0 1.4-.6 1.4-1.4v-1.4c0-.8-.6-1.4-1.4-1.4zm-1.4 2.8v-1.4h1.4v1.4H6.2zm6.3-2.8h-1.4c-.8 0-1.4.6-1.4 1.4v1.4c0 .8.6 1.4 1.4 1.4h1.4c.8 0 1.4-.6 1.4-1.4v-1.4c0-.8-.6-1.4-1.4-1.4zm-1.4 2.8v-1.4h1.4v1.4h-1.4zm6.3-2.8H16c-.8 0-1.4.6-1.4 1.4v1.4c0 .8.6 1.4 1.4 1.4h1.4c.8 0 1.4-.6 1.4-1.4v-1.4c0-.8-.6-1.4-1.4-1.4zM16 22.3v-1.4h1.4v1.4H16zm27.4 2c-.9-.8-2.2-.8-3 0l-12 12-.1.2-1.7 3.7a.7.7 0 00.9 1l3.7-1.8h.2l12-12c.8-1 .8-2.2 0-3zm-13 14l-1.8.8.9-1.9 9-9 1 1-9 9zm10-10l-1-1 .5-.5 1 1-.5.5zm2-2l-.5.5-1-1 .5-.5a1 1 0 011 0c.2.3.2.7 0 1z"/>
    </symbol>
    
    <symbol id="icon-cat-8" viewBox="0 0 45 45">
      <title>Legal</title>
      <path d="M43.7 27.6l-6.8-15 1.7-.8-.7-1.3-1.6.8-.2-.4a.7.7 0 00-1.3 0l-.2.4a9 9 0 00-3.7-.8H25V9h1.4V7.7h-1.2l.5-2a2.9 2.9 0 10-5.6 0l.5 2h-1.2V9h1.4v1.4H15a9 9 0 00-3.8.8l-.2-.4a.7.7 0 00-1.3 0l-.2.4-1.6-.8-.6 1.3 1.6.8-6.8 15-.1.3a5 5 0 004.9 4.9h7a5 5 0 004.8-5v-.2l-7-15c1-.5 2.2-.8 3.3-.8h5.8v25.5l-2.4 2.4H16a3.5 3.5 0 00-3.4 3.5c0 .4.3.7.7.7h19.5c.4 0 .7-.3.7-.7 0-2-1.6-3.5-3.5-3.5h-2.5L25 37.3V11.8h5.9c1 0 2.1.3 3.1.8l-6.8 15-.1.3a5 5 0 004.9 4.9h7a5 5 0 004.8-5v-.2zm-29.9 3.8h-7c-1.6 0-3-1.2-3.3-2.8h13.8a3.5 3.5 0 01-3.5 2.8zm3.1-4.2H3.8l6.4-14h.3l6.4 14zM21.7 4a1.5 1.5 0 012.4 0c.3.3.4.8.2 1.2l-.5 2.4H22l-.6-2.4c-.1-.4 0-.9.2-1.2zm.5 6.4V9h1.4v1.4h-1.4zm1.4 1.3V37h-1.4V12h1.4zM30 41.1c.9 0 1.7.6 2 1.4H14c.4-.8 1.2-1.4 2-1.4h14zm-4.5-1.4h-5l1.4-1.4H24l1.4 1.4zm9.9-26.5h.3l6.4 14H29l6.4-14zM39 31.4h-7c-1.6 0-3-1.2-3.3-2.8h13.8a3.5 3.5 0 01-3.5 2.8z"/>    
    </symbol>
    <symbol id="icon-cat-9" viewBox="0 0 45 45">
      <title>Education &amp; Training</title>
      <path d="M9.2 10c.4 0 .7.2.8.5.2.4 0 .7-.4.9l-8 2.4 8.8 2.8 9.9-3.1a2.3 2.3 0 0 1 2.2-2.8 2.3 2.3 0 1 1-1.6 4l-8.3 2.6 9.9 3 7-2.1c.3-.1.7 0 .8.4 0 .4-.1.8-.5.9l-7 2.1a1.2 1.2 0 0 1-.7 0l-11-3.4v10c1.8.5 3.7 1 5.5 1.2a.7.7 0 0 1-.2 1.3c-1.8-.3-3.6-.6-5.4-1.2v4.2c1.2.2 2 1.2 2 2.4v2.1c0 .8-.6 1.4-1.3 1.4H9c-.7 0-1.3-.6-1.3-1.4v-2.1c0-1.2.9-2.2 2-2.4V29c-1-.2-1.9-.6-2.8-1-.6-.2-1-.8-1-1.5v-10L.8 15c-.6-.1-.9-.6-.9-1.2 0-.5.3-1 .9-1.1zm1.4 25H10c-.6 0-1 .4-1 1v2.2h2.6v-2.1c0-.7-.5-1.1-1.1-1.1zM22 6h.8L44 12.8c.6.1.9.6.9 1.1 0 .6-.3 1-.9 1.2l-5 1.6v10c0 .7-.4 1.3-1 1.6A43.4 43.4 0 0 1 19.3 31a.7.7 0 0 1 .1-1.3 41.3 41.3 0 0 0 18.5-3.1V17l-5.4 1.6a.7.7 0 0 1-.8-.4c-.1-.4 0-.7.4-.8l11.3-3.6-20.9-6.5-9.4 3c-.3 0-.7-.1-.8-.5-.1-.3 0-.7.4-.8zM7 17v9.6a46.7 46.7 0 0 0 2.5 1.2v-10L7.2 17zm15.4-5a1 1 0 0 0 0 2 1 1 0 0 0 0-2z"/>
    </symbol>
    <!-- category -->

    <!-- StatsBand -->
    <symbol id="icon-employer" viewBox="0 0 45 45">
      <path d="M34.46 33.85c-.3 0-.55.24-.55.54v5.07a.3.3 0 01-.3.3H30.7V29.13c0-.3-.24-.53-.54-.53-.3 0-.54.24-.54.53v10.63h-5.89l1.71-1.86a.96.96 0 00.23-.8l-1.62-9.53.44-.65c.24.17.42.34.77.34.36 0 .7-.2.86-.53l1.7-3.4 3.91 1.5c.14.05 2.2.97 2.2 3.4v6.9c0 .3.24.53.54.53.3 0 .54-.24.54-.54v-6.9a4.82 4.82 0 00-2.88-4.4l-6.5-2.5v-1.51a5.05 5.05 0 001.93-3.33c.52-.04 1-.23 1.38-.56a2.28 2.28 0 00.24-3.23v-2A6.72 6.72 0 0022.44 4c-3.71 0-6.73 3-6.73 6.69v2.05c-.37.4-.56.91-.56 1.44 0 .67.29 1.3.8 1.74.39.33.87.52 1.38.56a5 5 0 002.04 3.4v1.44l-6.5 2.5a4.82 4.82 0 00-2.87 4.4v11.24c0 .76.62 1.38 1.39 1.38h8.44c.3 0 .55-.24.55-.54 0-.3-.25-.54-.55-.54H15.4V29.13c0-.3-.24-.53-.54-.53-.3 0-.54.24-.54.53v10.63H11.4a.3.3 0 01-.3-.3V28.22a3.74 3.74 0 012.19-3.4l3.9-1.5 1.71 3.41c.16.33.5.53.85.53s.53-.17.78-.34l.44.65-1.63 9.54v.01c-.04.29.05.58.24.78l1.7 1.86H19.1c-.3 0-.54.24-.54.54 0 .3.24.54.54.54h14.5c.77 0 1.39-.62 1.39-1.38V34.4c0-.3-.24-.54-.54-.54zM26.8 22.93l-1.6 3.18-1.92-1.36 1.98-2.41 1.54.59zm-3.21 3.36l-.41.62h-1.36l-.41-.62 1.09-.77 1.09.77zm-3.14-4.8v-1c.66.26 1.37.38 2.06.38.71 0 1.4-.15 2.03-.42v1.05L22.5 24l-2.05-2.5zm8.2-7.3a1.22 1.22 0 01-1.05 1.2v-2.41c.62.1 1.05.62 1.05 1.2zm-11.37 1.2a1.22 1.22 0 01-1.05-1.2c0-.58.49-1.05 1.05-1.18v2.38zm.03-3.48a2.7 2.7 0 00-.52.11V10.7c0-3.1 2.54-5.61 5.65-5.61a5.63 5.63 0 015.65 5.6v1.3a2.43 2.43 0 00-.5-.09c0-.52.01-.42-1.7-2.25a.97.97 0 00-1.24-.15 10.53 10.53 0 01-6.33 1.7.97.97 0 00-1 .72zm1.06 3.9v-3.54c2.35.14 4.8-.56 6.8-1.82.78.84 1.2 1.28 1.34 1.45v3.91a4 4 0 01-4 3.98 4.02 4.02 0 01-4.14-3.98zm1.42 10.3l-1.6-3.18 1.55-.6 1.97 2.43-1.92 1.35zm.63 11.11L21.99 28H23l1.57 9.23-2.08 2.28-2.08-2.28z"/>
    </symbol>
    <symbol id="icon-freelancer" viewBox="0 0 45 45">
      <path d="M22 3a5.3 5.3 0 015.3 5.1v4.4c0 2-1 3.7-2.6 4.7a11 11 0 016.6 5.2l.2.3h2c.8 0 1.4.5 1.5 1.3v15c0 .6-.5 1.2-1.1 1.2H10.3c-.7 0-1.2-.5-1.3-1V24c0-.7.6-1.3 1.3-1.4h2.2a11 11 0 016.8-5.5 5.4 5.4 0 01-2.6-4.4V8.4C16.7 5.4 19 3 22 3zm11.9 35H10.1v1l.1.2h23.5l.2-.1V38zm-.3-14.2H10.4c-.1 0-.3 0-.3.2v13.1h23.8V24c0-.2-.1-.3-.3-.3zm-11.6 4c1.2 0 2.2 1 2.2 2.2 0 1.3-1 2.3-2.2 2.3-1.2 0-2.2-1-2.2-2.3 0-1.2 1-2.2 2.2-2.2zm0 1c-.6 0-1.2.6-1.2 1.2 0 .7.6 1.2 1.2 1.2s1.2-.5 1.2-1.2c0-.6-.6-1.1-1.2-1.1zm-1.7-8.5l-1-2a10 10 0 00-5.4 4.1l-.1.3h6l.5-2.4-1-2zm2.4.4h-1.4l-.5 2h2.4l-.5-2zm2-2.4l-1 2 .6 2.4h6a10 10 0 00-5.6-4.4zm-2.6-.4h-.4a8 8 0 00-.6 0l-.4.1h-.3l.8 1.6h1.6l.8-1.5-.7-.1h-.3l-.3-.1H22zm.7-9.3a7 7 0 01-4.7 2.4h-.3v1.5c0 2.3 1.8 4.2 4 4.3h.4a4 4 0 004-4V11a4.7 4.7 0 01-3.4-2.4zM22 4.1a4.3 4.3 0 00-4.2 4V10c3.4-.2 4.6-2.5 4.6-2.6a.5.5 0 011 .1c0 .1.8 2 2.6 2.4h.2V8.4C26.2 6 24.3 4 22 4z"/>
    </symbol>
    <symbol id="icon-invoice" viewBox="0 0 45 45">
      <path d="M33.26 5A8.64 8.64 0 0142 13.5c0 4.7-3.92 8.52-8.74 8.52h-.24l-.24-.01v13.47a4.76 4.76 0 01-4.61 4.7h-.44l-.1-.01v.02H8.62v-.02A4.77 4.77 0 014 35.7v-2.87c0-.3.24-.52.53-.56H9l.14-21.01c0-.3.23-.57.53-.62h15.37A8.82 8.82 0 0133.26 5zM23.09 33.45H5.23v2.03a3.57 3.57 0 003.42 3.5h16.07c-.06-.07-.14-.12-.2-.18a4.64 4.64 0 01-1.43-3.08v-2.27zm1.6-21.63H10.36l-.14 20.43h13.5c.17 0 .32.05.43.16.09.09.15.2.16.32v2.74a3.58 3.58 0 003.43 3.51h.21a3.56 3.56 0 003.6-3.3V21.85a8.7 8.7 0 01-5.45-3.5l-.17-.25h-6.48a.6.6 0 01-.62-.6c0-.3.22-.55.52-.6h5.91a8.25 8.25 0 01-.57-5.1zm-10.13 15.7a2.11 2.11 0 110 4.23 2.11 2.11 0 010-4.23zm0 1.36c-.44 0-.8.34-.8.75s.36.75.8.75c.43 0 .79-.34.79-.75a.77.77 0 00-.8-.75zm12.72.05c.36 0 .65.31.65.7 0 .39-.3.7-.65.7h-8.56c-.36 0-.65-.31-.65-.7 0-.39.3-.7.65-.7zm-12.72-7.04a2.11 2.11 0 110 4.23 2.11 2.11 0 010-4.23zm0 1.36c-.44 0-.8.34-.8.75s.36.75.8.75c.43 0 .79-.34.79-.75a.77.77 0 00-.8-.75zm12.72.05c.36 0 .65.31.65.7 0 .35-.24.65-.55.7h-8.66c-.36 0-.65-.31-.65-.7 0-.35.24-.65.55-.7h8.66zm5.98-17.1a7.4 7.4 0 00-7.51 7.3 7.4 7.4 0 007.51 7.31 7.4 7.4 0 007.5-7.3 7.4 7.4 0 00-7.5-7.3zm-18.7 10.05a2.11 2.11 0 11-.01 4.23 2.11 2.11 0 010-4.23zm0 1.36c-.44 0-.8.34-.8.75s.36.75.8.75c.43 0 .79-.34.79-.75a.77.77 0 00-.8-.75zm18.93-9.8c.34 0 .61.22.66.5V9c1.3.26 2.22 1.3 2.22 2.49 0 .33-.3.6-.66.6-.37 0-.67-.27-.67-.6 0-.73-.65-1.33-1.45-1.34h-.15c-.8.06-1.4.67-1.37 1.39.03.72.69 1.29 1.49 1.29 1.43 0 2.64.98 2.8 2.27.14 1.23-.72 2.38-2.03 2.71l-.17.04v.63c0 .34-.3.6-.67.6-.33 0-.6-.22-.65-.5l-.01-.1v-.65c-1.23-.3-2.09-1.31-2.09-2.46 0-.33.3-.6.67-.6.36 0 .66.27.66.6 0 .74.67 1.34 1.49 1.34s1.48-.6 1.48-1.34c0-.74-.66-1.34-1.48-1.34-1.42 0-2.61-.95-2.8-2.21-.17-1.22.63-2.36 1.9-2.74l.17-.05v-.6c0-.34.3-.6.66-.6z"/>
    </symbol>
    <symbol id="icon-money" viewBox="0 0 45 45">
      <path d="M35.64 13.74c3.46 0 7.17.83 7.34 2.63v16.74c0 1.9-3.8 2.76-7.34 2.76-3.46 0-7.17-.83-7.34-2.63V16.5c0-1.9 3.8-2.76 7.34-2.76zm6.01 18.27c-1.42.74-3.77 1.1-6.01 1.1-2.11 0-4.31-.31-5.75-.97l-.26-.12v1.08c.1.38 2.1 1.38 6.01 1.38 3.79 0 5.79-.94 6-1.35l.01-.04v-1.08zm0-2.76c-1.42.74-3.77 1.09-6.01 1.09-2.11 0-4.31-.31-5.75-.96l-.26-.13v1.09c.1.37 2.1 1.38 6.01 1.38 3.79 0 5.79-.95 6-1.36l.01-.03v-1.08zm0-2.77c-1.42.74-3.77 1.09-6.01 1.09-2.11 0-4.31-.3-5.75-.96l-.26-.13v1.09c.1.37 2.1 1.38 6.01 1.38 3.79 0 5.79-.95 6-1.35l.01-.04v-1.08zM36.98 9h.09a.6.6 0 01.47.5v2.17c0 .33-.25.59-.56.59h-.1a.58.58 0 01-.47-.5V10.2H4.14v15.4h22.14c.31 0 .57.27.57.6 0 .3-.2.54-.48.58l-.1.01H3.49a.58.58 0 01-.47-.5l-.01-.1V9.5a.58.58 0 01.48-.48l.1-.01h33.4zm4.67 14.72c-1.42.74-3.77 1.08-6.01 1.08-2.11 0-4.31-.3-5.75-.96l-.26-.12v1.08c.1.38 2.1 1.39 6.01 1.39 3.79 0 5.79-.95 6-1.36l.01-.04v-1.07zM9.23 11.77h5.03c.32 0 .57.26.57.59 0 .3-.2.54-.48.58l-.09.01h-4.8l-2.64 2.67v4.5l2.4 2.7h5.04c.32 0 .57.27.57.6 0 .3-.2.54-.48.59H8.96a.56.56 0 01-.35-.12l-.07-.07-2.72-3.07a.6.6 0 01-.14-.31v-5c0-.15.03-.29.1-.4l.06-.1 2.99-3a.5.5 0 01.31-.17h5.12zm10.38.04a5.98 5.98 0 015.88 6.08 5.98 5.98 0 01-5.88 6.08 6 6 0 01-5.88-6.08 5.98 5.98 0 015.88-6.08zm22.04 9.14c-1.42.74-3.77 1.09-6.01 1.09-2.11 0-4.31-.31-5.75-.96l-.26-.13v1.09c.1.37 2.1 1.38 6.01 1.38 3.79 0 5.79-.95 6-1.36l.01-.03v-1.08zm-22.04-8.04a4.9 4.9 0 00-4.81 4.98 4.9 4.9 0 004.8 4.98 4.9 4.9 0 004.82-4.98 4.9 4.9 0 00-4.81-4.98zm0 1.87c.37 0 .66.3.66.69h.67c.37 0 .67.31.67.7 0 .37-.3.68-.67.68h-1.67c-.2 0-.33.12-.33.18 0 .05.12.17.33.17h.82c.8.03 1.48.7 1.52 1.56a1.6 1.6 0 01-1.34 1.52v.03c0 .38-.3.7-.66.7a.68.68 0 01-.67-.7h-.67a.68.68 0 01-.67-.7c0-.37.3-.68.67-.68h1.67c.2 0 .33-.12.33-.18 0-.05-.12-.17-.33-.17h-.67a1.62 1.62 0 01-1.67-1.56 1.6 1.6 0 011.34-1.52v-.03c0-.38.3-.7.67-.7zm22.04 3.4c-1.42.74-3.77 1.1-6.01 1.1-2.11 0-4.31-.32-5.75-.97l-.26-.12v1.08c.1.38 2.1 1.39 6.01 1.39 3.79 0 5.79-.95 6-1.36l.01-.04V18.2zm-6.01-3.06c-3.78 0-5.78.95-6 1.36l-.01.04c.1.36 2.1 1.37 6.01 1.37 3.88 0 5.88-1 6.01-1.38-.13-.4-2.13-1.39-6.01-1.39zm-5.39-3.35c.32 0 .58.26.58.59 0 .3-.21.54-.48.58l-.1.01h-5.3a.58.58 0 01-.57-.6c0-.29.2-.53.48-.58h5.4z"/>
    </symbol>
    <symbol id="icon-satisfaction" viewBox="0 0 45 45">
      <path d="M38.02 21.29c1.73-1.7 1.2-5.13-1.79-5.13h-7.85c.3-1.64.73-4.37.71-4.62-.16-2.44-1.73-5.4-1.8-5.53-.29-.53-1.73-1.24-3.19-.94-1.88.4-2.07 1.59-2.06 1.92 0 0 .08 3.25.08 4.11-.9 1.96-4 7.1-4.94 7.5a1.4 1.4 0 00-.74-.22H6.52c-.84 0-1.52.68-1.52 1.5v13.57c.06.73.69 1.3 1.43 1.3h8.9c.8 0 1.44-.64 1.44-1.42v-.45s.33-.02.48.07c.57.36 1.28.82 2.2.82h13.3c4.97 0 4.43-4.37 3.98-4.96.84-.9 1.36-2.5.65-3.76.54-.57 1.5-2.14.64-3.76zM15.03 33.33h-8.6V19.8h8.6v13.53zm20.68-12.16l-.09.33c2.3.65 1.08 3.26-.57 3.43l-.08.33c2.2.56 1.15 3.24-.57 3.43l-.08.33c1.8.3 1.36 3.32-1.36 3.32H19.44c-.95 0-1.82-1.07-2.53-1.07h-.6V20.85c.75-.46 1.7-1.07 2.22-1.51.98-.83 5.02-7.29 5.02-8.1 0-.8-.1-4.3-.1-4.3s.8-1 2.57-.27c0 0 1.48 2.76 1.64 4.96 0 0-.67 4.53-1.03 5.95H36c2.3 0 1.86 3.25-.3 3.59z"/>    
    </symbol>
    <symbol id="icon-satisfaction-badge" viewBox="0 0 45 45">
      <path d="M29.918 16.137c0-.552.241-1.192.497-1.869.387-1.022.786-2.079.448-3.119-.351-1.083-1.362-1.742-2.254-2.323-.586-.382-1.14-.742-1.441-1.157-.308-.423-.483-1.067-.669-1.75-.277-1.02-.591-2.176-1.5-2.838-.9-.654-2.04-.6-3.141-.549-.712.034-1.385.066-1.893-.1-.473-.153-.978-.562-1.514-.994C17.617.764 16.672 0 15.513 0c-1.16 0-2.105.764-2.94 1.438-.535.433-1.04.841-1.513.995-.508.165-1.18.133-1.893.1-1.102-.052-2.241-.106-3.141.549-.909.66-1.223 1.817-1.5 2.838-.186.682-.36 1.326-.669 1.75-.301.414-.855.774-1.44 1.156-.893.581-1.904 1.24-2.255 2.323-.338 1.04.061 2.097.448 3.12.255.676.497 1.316.497 1.868S.865 17.329.61 18.006c-.387 1.022-.786 2.079-.449 3.119.352 1.083 1.363 1.742 2.255 2.323.586.382 1.14.742 1.441 1.157.308.423.483 1.067.669 1.75.277 1.02.591 2.176 1.5 2.837.9.655 2.04.601 3.141.55.712-.034 1.384-.066 1.893.1.473.153.978.561 1.514.994.403.326.832.672 1.299.943l-2.766 9.92-2.552-2.845a.722.722 0 00-.747-.208L4.154 39.76 6.96 29.23a.721.721 0 00-1.39-.387L2.412 40.639a.721.721 0 00.905.884L7.79 40.16l3.123 3.48a.721.721 0 001.232-.287l3.092-11.095c.091.009.183.016.276.016.094 0 .185-.007.276-.016l3.094 11.095a.721.721 0 001.232.288l3.122-3.481 4.473 1.363a.721.721 0 00.905-.884L25.34 28.893c.653-.677.92-1.658 1.16-2.539.185-.682.36-1.327.668-1.75.302-.414.855-.775 1.441-1.156.892-.581 1.903-1.24 2.255-2.324.338-1.04-.062-2.097-.448-3.119-.256-.677-.497-1.316-.497-1.868zM26.87 39.76l-3.655-1.114a.721.721 0 00-.747.208l-2.55 2.844-2.767-9.919c.467-.271.896-.617 1.299-.943.535-.433 1.041-.842 1.514-.995.509-.165 1.18-.134 1.893-.1.74.035 1.499.07 2.19-.11L26.87 39.76zm2.62-19.08c-.194.598-.911 1.065-1.67 1.56-.67.436-1.362.887-1.82 1.516-.464.637-.683 1.442-.894 2.22-.236.868-.458 1.687-.957 2.05-.49.356-1.332.316-2.224.274-.81-.038-1.648-.077-2.406.169-.727.236-1.362.749-1.976 1.245-.71.575-1.382 1.117-2.032 1.117-.65 0-1.32-.542-2.031-1.117-.614-.496-1.25-1.01-1.976-1.245-.478-.155-.988-.197-1.503-.197-.3 0-.604.014-.903.028-.892.042-1.735.082-2.224-.274-.499-.363-.721-1.182-.957-2.05-.211-.778-.43-1.583-.894-2.22-.458-.63-1.15-1.08-1.82-1.517-.76-.494-1.476-.961-1.67-1.56-.182-.558.113-1.338.425-2.164.29-.768.59-1.562.59-2.378 0-.816-.3-1.61-.59-2.378-.312-.826-.607-1.606-.425-2.164.194-.599.911-1.066 1.67-1.56.67-.436 1.362-.887 1.82-1.516.464-.638.683-1.443.894-2.22.236-.868.458-1.688.957-2.05.49-.357 1.332-.317 2.224-.275.81.038 1.648.078 2.406-.169.727-.236 1.362-.749 1.976-1.245.71-.575 1.382-1.117 2.032-1.117.65 0 1.32.542 2.031 1.117.614.496 1.249 1.01 1.976 1.245.759.246 1.596.207 2.406.169.892-.042 1.735-.082 2.224.274.498.363.721 1.182.957 2.05.211.778.43 1.583.894 2.22.458.63 1.15 1.08 1.82 1.517.759.494 1.476.961 1.67 1.56.182.558-.113 1.338-.425 2.163-.29.769-.59 1.563-.59 2.379 0 .816.3 1.61.59 2.378.312.826.607 1.606.425 2.164zm-17.591-6.71a.36.36 0 01.357.36v6.479c0 .199-.16.36-.357.36H10.47a.359.359 0 01-.357-.36v-6.48c0-.198.16-.36.357-.36zm4.393-3.316c.263-.066.59-.003.823.122.718.384.886 1.465.627 2.174l-.375 1.025s2.684-.01 2.742 0c.949.16 1.22 1.451.408 1.972a1.082 1.082 0 01-.356 1.428 1.082 1.082 0 01-.356 1.427c.395.7-.13 1.596-.93 1.596H12.94v-5.71s1.717-1.558 2.27-2.099c.317-.31.522-.722.604-1.156.032-.172.023-.352.114-.506a.594.594 0 01.363-.273z"/>
    </symbol>
    <!-- StatsBand -->



    <!-- UI ELEMENTS -->
    <symbol id="icon-search" viewBox="0 0 20 20">
      <path d="M19.76 18.58l-4.81-4.8a8.43 8.43 0 10-1.18 1.18l4.8 4.8a.83.83 0 001.19-1.18zM8.5 15a6.5 6.5 0 11.01-13.01A6.5 6.5 0 018.5 15z"/>
    </symbol>
    
    <symbol id="icon-thumbup" viewBox="0 0 34 32">
      <path d="M0 32h6.2V12.8H0V32zm34.13-17.6v-.05a3.16 3.16 0 0 0-3.097-3.15H21.26l1.55-7.36v-.5a3.322 3.322 0 0 0-.637-1.759l.007.009v.01L20.49 0 10.24 10.56a2.695 2.695 0 0 0-.93 2.26l-.001-.009v-.01V28.832a3.17 3.17 0 0 0 3.086 3.169h13.964a3.09 3.09 0 0 0 2.782-1.88l.008-.02v-.02l4.66-11.37a2.672 2.672 0 0 0 .159-1.128v.019l.15-3.2z"></path>
    </symbol>
    
    <symbol id="icon-caret" viewBox="0 0 32 32">
      <path d="M28.8 6.2L16 19 3.2 6.2 0 9.4l16 16.4L32 9.4z"></path>
    </symbol>

    <symbol id="icon-check" viewBox="0 0 100 100">
      <circle cx="50" cy="50" r="46" fill="transparent"  stroke="currentcolor" stroke-width="6"></circle>
      <polyline points="25,55 45,70 75,33" fill="transparent" stroke="currentcolor" stroke-width="6"></polyline>
    </symbol>

    <symbol id="icon-lightbulb" viewBox="0 0 16 16">
      <path d="M10.3 13.4v.6c0 .5-.3.9-.8 1l-.1.5c-.1.3-.4.5-.7.5H7.3a.7.7 0 01-.7-.5l-.1-.6a1 1 0 01-.8-1v-.5c0-.4.2-.6.6-.6h3.4c.4 0 .6.2.6.6zM13 5a5 5 0 01-1.4 3.6c-.7.7-1 1.6-1.2 2.6 0 .4-.4.7-.9.7h-3a.8.8 0 01-.9-.7c-.1-1-.5-1.9-1.2-2.6-.9-.8-1.4-2-1.4-3.4A5 5 0 018 0a5 5 0 015 5.1zM8.6 2c0-.4-.3-.7-.6-.7-2 0-3.6 1.7-3.6 3.8 0 .3.2.5.6.5.3 0 .5-.2.5-.5 0-1.4 1.1-2.6 2.5-2.6.3 0 .6-.2.6-.6z"/>
    </symbol>
    <!-- UI ELEMENTS -->

    <symbol id="icon-searchgurulocation" viewBox="0 0 45 45">
      <title>Search Freelancers by Location</title>
      <path d="M22.4 19.5a4.4 4.4 0 110-8.8 4.4 4.4 0 010 8.8zm0-7.5a3.1 3.1 0 100 6.3 3.1 3.1 0 000-6.3zm.4 27.2L12 24.2c-4-5.3-3.5-13.8 1.2-18.4 2.6-2.4 6-3.8 9.6-3.8 3.6 0 7 1.4 9.5 3.8a14.4 14.4 0 011.3 18.3L22.8 39.2zM14.2 6.8a13 13 0 00-1 16.5l9.6 13.5 9.6-13.4a13 13 0 00-1-16.6 12.2 12.2 0 00-8.6-3.4c-3.2 0-6.3 1.2-8.6 3.4zm16.5 24.4c7.1.8 12.1 3.2 12.1 5.8 0 3-7 5.8-20.4 5.8C9 42.8 2 40 2 37c0-2.6 5-5 12.2-5.8.3 0 .7.2.7.6 0 .4-.2.7-.6.7-7.1.9-11 3.2-11 4.5 0 1.9 7.3 4.5 19.1 4.5s19-2.6 19-4.5c0-1.3-3.7-3.6-10.9-4.5a.7.7 0 01-.6-.7c0-.4.4-.7.8-.6z"/>    
    </symbol>
    
    <symbol id="icon-searchguruskill" viewBox="0 0 45 45">
      <title>Search Freelancers by Skill</title>
      <path d="M24.9 14.4l1.3-1.1c.8-.7 1.2-1.9 1-3-.2-2.2.3-4 1.7-5.5l2.5-2.4a4 4 0 015.8 0c.2.3.2.7 0 1l-4.4 4.4 3.9 4L41 7.2c.3-.3.7-.3 1 0a4.2 4.2 0 010 6l-2.4 2.4a6 6 0 01-5.4 1.7c-1.1-.2-2.2.2-2.9 1l-.8 1 7.9 8c0 .2.1.2.2.3v.2l3.4 9v.1l1.9 5c.1.3 0 .5-.2.7a.7.7 0 01-.7.2l-14-5.4-.3-.2-7.2-7.3-9.2 10.9a5.7 5.7 0 01-8.4.3 5.9 5.9 0 01-1.7-4.4c0-1.6.7-3.1 2-4.2l10.3-9-5.2-5.3-3-3v-.1l-3.6-3.6C2.3 11 2 10.4 2 9.7s.3-1.4.7-1.9l6.1-6.1c1-1 2.6-1 3.6 0L16 5.3l.1.1 3 3 5.9 6zM21 19.6L15.9 24 5 33.6c-.9.9-1.4 2-1.5 3.3 0 1.2.4 2.4 1.3 3.3.9.9 2 1.4 3.3 1.3 1.2 0 2.4-.6 3.2-1.5l19-22.5c1-1.2 2.5-1.7 4.1-1.5 1.7.2 3.1-.2 4.2-1.3l2.4-2.5c1-.9 1-2.3.5-3.4l-4.3 4.4c-.3.3-.7.3-1 0l-4.8-5a.7.7 0 010-.9L35.6 3a2.7 2.7 0 00-3.3.5L30 5.8a4.8 4.8 0 00-1.3 4.3c.2 1.6-.3 3.2-1.5 4.2l-6 5.3zM7.8 14.8l2 2 7.7-8-2-1.9-7.7 7.9zm2.8-12.4c-.3 0-.6.1-.8.3L3.8 9c-.3.3-.4.6-.4.9 0 .3 0 .6.3.8l3 3.1 7.8-7.9-3-3c-.3-.3-.6-.4-.9-.4zm.2 15.4l4.7 4.8 8.3-7.2-5.3-5.5-7.7 8zM29.3 36l7.8-8-7-7-7.2 8.4 6.4 6.6zm11.3 1l-2.9-7.6-7 7.2 7.5 3 2.4-2.5zm.5 1.5l-1.5 1.6 2.5 1-1-2.6zm-29-2H12a.7.7 0 01-.5-.4l-.2-.6c-.2-.4-.4-1-.7-1.2-.2-.3-.7-.5-1.2-.6l-.5-.2a.7.7 0 01-.2-1.2L20.8 21c.3-.3.7-.2 1 0l1.9 2c.2.2.3.7 0 1L12.6 36.2l-.5.2zm-1.6-4l1.1.8c.3.4.6.8.7 1.2l10-11-1-1-10.8 10zM7.7 40c-.7 0-1.4-.2-2-.8-.4-.5-.7-1.2-.7-2 0-.7.3-1.4.8-2 1-1 2.8-1 3.9 0 .5.6.8 1.3.8 2 0 .8-.3 1.5-.8 2-.6.6-1.3.8-2 .8zm0-4.1c-.3 0-.7.1-1 .4-.2.2-.3.6-.3 1 0 .3.1.7.4 1 .5.5 1.4.5 1.9 0 .3-.3.4-.7.4-1 0-.4-.1-.8-.4-1-.3-.3-.6-.4-1-.4z"/>
    </symbol>
    
    <symbol id="icon-location-pin" viewBox="0 0 20 20">
      <path fill="currentColor" d="M10 1.375c-3.17 0-5.75 2.548-5.75 5.682 0 6.685 5.259 11.276 5.483 11.469a.41.41 0 0 0 .534 0c.224-.193 5.481-4.784 5.483-11.469 0-3.134-2.579-5.682-5.75-5.682m0 16.278c-1.064-1.024-4.929-5.127-4.929-10.596 0-2.68 2.212-4.861 4.929-4.861s4.929 2.181 4.929 4.861c-.002 5.461-3.866 9.57-4.929 10.596m0-13.814c-1.815 0-3.286 1.47-3.286 3.286s1.47 3.286 3.286 3.286 3.286-1.47 3.286-3.286S11.815 3.839 10 3.839m0 5.75c-1.359 0-2.464-1.105-2.464-2.464S8.641 4.661 10 4.661s2.464 1.105 2.464 2.464S11.359 9.589 10 9.589"></path>
    </symbol>


    <!-- Agreements -->
    <symbol id="icon-agreement-fixed" viewBox="0 0 45 45">
      <path d="M6.708 0c.392 0 .709.335.709.75v1.5h31.875c.257 0 .494.148.62.386a.788.788 0 01-.02.761L33.044 15l6.848 11.602a.788.788 0 01.02.761.704.704 0 01-.62.387H7.417v16.5c0 .415-.317.75-.709.75-.391 0-.708-.335-.708-.75V.75c0-.415.317-.75.708-.75zm31.305 3.75H7.417v22.5h30.596l-6.405-10.852a.788.788 0 010-.796L38.013 3.75zm-13.952 7.41a.554.554 0 01.778 0 .541.541 0 010 .77l-6.978 6.91a.554.554 0 01-.778 0l-2.922-2.893a.54.54 0 010-.77.554.554 0 01.778 0l2.533 2.508z"/>
    </symbol>
    <symbol id="icon-agreement-hourly" viewBox="0 0 45 45">
      <path d="M4.74 0h35.52a.74.74 0 01.1 1.473l-.1.007h-2.22v2.96h-3.7v7.564a5.953 5.953 0 01-2.443 4.814l-.213.149-7.85 5.233 7.85 5.233a5.953 5.953 0 012.65 4.703l.006.26v7.564h3.7v2.96h2.22a.74.74 0 01.1 1.473l-.1.007H4.74a.74.74 0 01-.1-1.473l.1-.007h2.22v-2.96h3.7v-7.564c0-1.911.909-3.693 2.443-4.814l.213-.149 7.85-5.233-7.85-5.233a5.953 5.953 0 01-2.65-4.703l-.006-.26V4.44h-3.7V1.48H4.74a.74.74 0 01-.1-1.473L4.74 0h35.52zm31.82 41.44H8.44v1.48h28.12v-1.48zM22.5 23.09l-8.363 5.575a4.477 4.477 0 00-1.99 3.494l-.007.237v7.564h20.72v-7.564c0-1.423-.67-2.75-1.803-3.595l-.194-.136-8.363-5.576zm3.084 5.36a.74.74 0 011.026-.206l3.432 2.288a2.996 2.996 0 011.338 2.5v1.644a.74.74 0 11-1.48 0v-1.644a1.52 1.52 0 00-.68-1.268l-3.431-2.288a.74.74 0 01-.205-1.027zM32.86 4.44H12.14v7.564c0 1.423.67 2.75 1.803 3.595l.194.136 8.363 5.576 8.363-5.576a4.477 4.477 0 001.99-3.494l.007-.237V4.44zm-18.5 5.18a.74.74 0 01.733.64l.007.1v1.644c0 .46.206.89.556 1.178l.123.09 3.432 2.289a.74.74 0 01-.724 1.286l-.097-.055-3.432-2.288a2.996 2.996 0 01-1.331-2.3l-.007-.2V10.36c0-.41.332-.74.74-.74zm22.2-8.14H8.44v1.48h28.12V1.48z"/>
    </symbol>
    <symbol id="icon-agreement-recurring" viewBox="0 0 45 45">
      <path d="M30 0c1.513 0 2.697 1.77 2.947 4.25l.021.25h3.782a.76.76 0 01.095.022.752.752 0 01.15.03.75.75 0 01.117.057.68.68 0 01.343.42l.015.035.014.036 7.5 36a.75.75 0 01-.623.892L44.25 42H37.5v2.25a.75.75 0 01-.648.743L36.75 45h-36a.75.75 0 01-.743-.648L0 44.25v-39a.75.75 0 01.648-.743L.75 4.5h3.781C4.725 1.89 5.936 0 7.5 0c1.513 0 2.697 1.77 2.947 4.25l.021.25h1.563C12.225 1.89 13.436 0 15 0c1.513 0 2.697 1.77 2.947 4.25l.021.25h1.563C19.725 1.89 20.936 0 22.5 0c1.513 0 2.697 1.77 2.947 4.25l.021.25h1.563C27.225 1.89 28.436 0 30 0zm6 15H1.5v28.5H36V15zm1.5-2.475V40.5h5.828L37.5 12.525zm-6.058 22.956c.287 0 .525.209.57.483l.007.094v2.307c0 .287-.21.525-.483.57l-.094.007h-2.307a.577.577 0 01-.57-.483l-.007-.094v-2.307c0-.287.209-.525.483-.57l.094-.007h2.307zm-22.5 0c.287 0 .525.209.57.483l.007.094v2.307a.578.578 0 01-.483.57l-.094.007H6.635a.577.577 0 01-.57-.483l-.007-.094v-2.307c0-.287.209-.525.483-.57l.094-.007h2.307zm14.712 0c.287 0 .524.209.57.483l.007.094v2.307c0 .287-.21.525-.484.57l-.093.007h-2.308a.577.577 0 01-.57-.483l-.007-.094v-2.307c0-.287.21-.525.484-.57l.093-.007h2.308zm-6.923 0a.58.58 0 01.57.483l.007.094v2.307c0 .287-.21.525-.484.57l-.093.007h-2.308a.577.577 0 01-.57-.483l-.007-.094v-2.307c0-.287.21-.525.483-.57l.094-.007h2.308zm-8.366 1.154H7.212v1.153h1.153v-1.153zm14.712 0h-1.154v1.153h1.154v-1.153zm-6.923 0H15v1.153h1.154v-1.153zm14.711 0h-1.154v1.153h1.154v-1.153zM8.942 27.692c.287 0 .525.21.57.484l.007.093v2.308a.578.578 0 01-.483.57l-.094.007H6.635a.577.577 0 01-.57-.484l-.007-.093v-2.308c0-.287.209-.524.483-.57l.094-.007h2.307zm14.712 0a.58.58 0 01.57.484l.007.093v2.308c0 .287-.21.525-.484.57l-.093.007h-2.308a.577.577 0 01-.57-.484l-.007-.093v-2.308a.58.58 0 01.484-.57l.093-.007h2.308zm-6.923 0a.58.58 0 01.57.484l.007.093v2.308c0 .287-.21.525-.484.57l-.093.007h-2.308a.577.577 0 01-.57-.484l-.007-.093v-2.308a.58.58 0 01.483-.57l.094-.007h2.308zm14.711 0c.287 0 .525.21.57.484l.007.093v2.308c0 .287-.21.525-.483.57l-.094.007h-2.307a.577.577 0 01-.57-.484l-.007-.093v-2.308c0-.287.209-.524.483-.57l.094-.007h2.307zM8.365 28.846H7.212V30h1.153v-1.154zm14.712 0h-1.154V30h1.154v-1.154zm7.788 0h-1.154V30h1.154v-1.154zm-14.711 0H15V30h1.154v-1.154zm.577-8.942a.58.58 0 01.57.483l.007.094v2.307c0 .287-.21.525-.484.57l-.093.007h-2.308a.577.577 0 01-.57-.483l-.007-.094v-2.307c0-.287.21-.525.483-.57l.094-.007h2.308zm6.923 0c.287 0 .524.209.57.483l.007.094v2.307c0 .287-.21.525-.484.57l-.093.007h-2.308a.577.577 0 01-.57-.483l-.007-.094v-2.307c0-.287.21-.525.484-.57l.093-.007h2.308zm5.48 0h2.308c.287 0 .525.209.57.483l.007.094v2.307c0 .287-.21.525-.483.57l-.094.007h-2.307a.577.577 0 01-.57-.483l-.007-.094v-2.307c0-.287.209-.525.483-.57l.094-.007h2.307zm-20.192 0c.319 0 .577.258.577.577v2.307a.577.577 0 01-.577.577H6.635a.577.577 0 01-.577-.577v-2.307c0-.319.258-.577.577-.577zm7.212 1.154H15v1.153h1.154v-1.153zm6.923 0h-1.154v1.153h1.154v-1.153zm7.788 0h-1.154v1.153h1.154v-1.153zm-22.5 0H7.212v1.153h1.153v-1.153zM4.531 6H1.5v7.5H36V6h-7.464c.166 1.85.922 3 1.464 3a.75.75 0 010 1.5c-1.513 0-2.694-1.77-2.946-4.25L27.03 6h-5.995c.166 1.85.922 3 1.464 3a.75.75 0 010 1.5c-1.513 0-2.694-1.77-2.946-4.25L19.53 6h-5.995c.166 1.85.922 3 1.464 3a.75.75 0 010 1.5c-1.513 0-2.694-1.77-2.946-4.25L12.03 6H6.036c.167 1.85.922 3 1.464 3a.75.75 0 010 1.5c-1.564 0-2.775-1.89-2.969-4.5zM30 1.5c-.518 0-1.232 1.051-1.437 2.763l-.024.237h2.925c-.167-1.85-.922-3-1.464-3zm-7.5 0c-.518 0-1.232 1.051-1.437 2.763l-.024.237h2.925c-.167-1.85-.922-3-1.464-3zm-7.5 0c-.518 0-1.232 1.051-1.437 2.763l-.024.237h2.925c-.167-1.85-.922-3-1.464-3zm-7.5 0c-.518 0-1.232 1.051-1.437 2.763L6.04 4.5h2.925c-.167-1.85-.922-3-1.464-3z"/>
    </symbol>
    <symbol id="icon-agreement-task" viewBox="0 0 45 45">
      <path d="M29.138 0L40 10.862V44.68H5V0h24.138zm-1.053 1.49H6.49v41.7h32.022V11.915H28.085V1.489zm-10.89 28.46a.744.744 0 11.93 1.164L14.4 34.092a.74.74 0 01-.991-.055l-1.49-1.49a.744.744 0 111.053-1.052l1.018 1.018zm2.699 2.071h11.915a.744.744 0 01.1 1.483l-.1.007H19.894a.744.744 0 01-.101-1.483l.1-.007H31.81zM18.24 21.875a.745.745 0 01-.035.972l-.08.075-3.724 2.979a.74.74 0 01-.9.023l-.091-.078-1.49-1.49a.744.744 0 01.97-1.125l.083.072 1.018 1.018 3.203-2.562a.744.744 0 011.046.116zm13.57 1.955a.744.744 0 01.1 1.482l-.1.007H19.894a.744.744 0 01-.101-1.482l.1-.007H31.81zM18.24 13.684a.745.745 0 01-.035.971l-.08.076-3.724 2.978a.74.74 0 01-.9.023l-.091-.078-1.49-1.49a.744.744 0 01.97-1.124l.083.072 1.018 1.018 3.203-2.563a.744.744 0 011.046.117zm13.569 1.954a.744.744 0 01.1 1.483l-.1.007H19.894a.744.744 0 01-.101-1.483l.1-.007H31.81zM29.574 2.542v7.884h7.884l-7.884-7.884z"/>
    </symbol>
    <!-- Agreements -->


    

    <!-- choose guru -->
    <symbol id="icon-credibility" viewBox="0 0 45 45">
      <path d="M22.5 15.85a1.35 1.35 0 011.4.3l6.6 6.45v-.94c0-2.4 2.01-4.36 4.48-4.36a4.43 4.43 0 014.48 4.36v1.2c0 1-.35 1.92-.93 2.66h.71a5.7 5.7 0 015.76 5.6v11.35c0 .47-.4.86-.88.86h-3.71a.9.9 0 01-.25-.04.9.9 0 01-.26.04h-9.84a.87.87 0 01-.88-.86V32.12l-5.6-8.1a11.4 11.4 0 01-1.08-1.96c-.29.68-.65 1.33-1.08 1.95l-5.6 8.1v10.36c0 .47-.4.86-.88.86H5.1a.9.9 0 01-.26-.04.9.9 0 01-.25.04H.88a.87.87 0 01-.88-.86V31.12a5.7 5.7 0 015.76-5.6h.7a4.27 4.27 0 01-.92-2.65v-1.21c0-2.4 2.01-4.36 4.48-4.36a4.43 4.43 0 014.48 4.36v.94l6.6-6.45c.38-.35.92-.47 1.4-.3zm.88 2.23c.06 1.78.63 3.5 1.66 4.98l5.75 8.32c.1.14.15.3.15.48v9.75h8.08v-6.33c0-.48.4-.86.88-.86.49 0 .88.38.88.86v6.33h2.46V31.12c0-2.14-1.8-3.9-4-3.9h-6.1a.89.89 0 01-.63-.24zm-1.76 0l-9.13 8.9-.09.07a.89.89 0 01-.53.18H5.76c-2.2 0-4 1.75-4 3.9V41.6h2.46v-9.75c0-.48.4-.86.88-.86s.88.38.88.86v9.75h8.08v-8.52c.01-.32.06-1.57.15-1.7l5.75-8.32a9.26 9.26 0 001.66-4.98zm-11.6.93a2.69 2.69 0 00-2.72 2.65v1.2a2.69 2.69 0 002.72 2.66 2.7 2.7 0 002.72-2.65v-1.21A2.69 2.69 0 0010.02 19zm24.96 0a2.69 2.69 0 00-2.72 2.65v1.2a2.69 2.69 0 002.72 2.66 2.7 2.7 0 002.72-2.65v-1.21A2.69 2.69 0 0034.98 19zm-4-11.26a.8.8 0 01.09 1.05l-.08.09-2.06 2.06a.8.8 0 01-1.14 0 .8.8 0 01-.08-1.06l.08-.09 2.05-2.05a.8.8 0 011.15 0zm-14.96-.12l.1.06 2 1.5c.33.25.33.65 0 .9a1.04 1.04 0 01-1.08.06l-.1-.07-2-1.5c-.33-.24-.33-.64 0-.89.3-.22.75-.24 1.08-.06zM22.96 2c.47 0 .86.36.91.82v5.6c0 .51-.4.93-.91.93a.92.92 0 01-.91-.82v-5.6c0-.52.4-.93.9-.93z"/>
    </symbol>

    <symbol id="icon-value" viewBox="0 0 45 45">
      <path d="M43.75 19.24a3.58 3.58 0 01.42 5c-8.43 10.18-7.9 9.55-7.97 9.61a7.83 7.83 0 01-5.2 2.26H19c-.62 0-1.2.22-1.68.62l-.15.13-.92.9c.3.88.12 1.88-.5 2.6l-.12.15-4.27 4.23a.87.87 0 01-1.15.08l-.09-.08L.26 34.7a.9.9 0 01-.08-1.16l.08-.09 4.18-4.23a2.6 2.6 0 012.35-.74c1.98-3.7 5.68-5.67 9.91-5.67 1.39 0 2.74.25 4.02.73l.38.16h9.8c1.01 0 1.95.44 2.6 1.16l.14.16 5.18-5.38a3.5 3.5 0 014.93-.4zM5.77 30.4l-.09.08-3.56 3.6 8.63 8.8 3.64-3.62a.9.9 0 000-1.25c-7.9-7.96-7.47-7.56-7.62-7.65a.87.87 0 00-1 .04zm34.37-9.58l-5.75 5.97a3.54 3.54 0 01-3.3 4l-.19.01h-7.17a.89.89 0 11-.11-1.76h7.28a1.78 1.78 0 10.14-3.55H20.92a.87.87 0 01-.35-.08 9.52 9.52 0 00-3.87-.81c-3.64 0-6.6 1.62-8.24 4.5l-.15.28 6.89 6.94.75-.72a4.35 4.35 0 012.8-1.24h11.93c1.5 0 2.93-.55 4.06-1.54l.2-.2 7.89-9.5a1.8 1.8 0 00-.21-2.51 1.75 1.75 0 00-2.48.21zM26.08 0a9.73 9.73 0 010 19.43 9.73 9.73 0 010-19.43zm0 1.77a7.96 7.96 0 000 15.9 7.96 7.96 0 000-15.9zm.03 1.3c.46 0 .84.4.84.88v1.02c.39.13.81.37 1.24.8.34.34.34.9.02 1.24a.82.82 0 01-1.2.02c-.29-.3-.6-.46-.9-.46-.47 0-.85.4-.85.88s.38.88.85.88c1.4 0 2.53 1.18 2.53 2.63 0 1.14-.7 2.12-1.69 2.48v1.02c0 .49-.38.88-.84.88a.86.86 0 01-.85-.88v-1.02a3.5 3.5 0 01-1.54-1.14.9.9 0 01.1-1.24.82.82 0 011.2.11c.34.43.73.66 1.09.66.46 0 .84-.39.84-.87a.86.86 0 00-.84-.88 2.58 2.58 0 01-2.53-2.63c0-1.14.7-2.12 1.68-2.48V3.95c0-.49.38-.88.85-.88z"/>    
    </symbol>

    <symbol id="icon-flexibility" viewBox="0 0 45 45">
      <path d="M42.3 3.7c2.3 2.3 2.3 6 0 8.3a.7.7 0 01-1 0l-3-3-1.2 1.3c3.4 3.5 5.5 5.4 5.5 13.5 0 8-4.6 13.7-9.4 16.6l-.3.2 2.2 2.2a.7.7 0 01-.5 1.2l-.4-.1-.1-.1-2.5-2.5a19.5 19.5 0 01-16.7.2l-.5-.2-2.5 2.5a.7.7 0 01-1-1l2.2-2.2a19.5 19.5 0 01-4.5-30l.3-.3L7.7 9l-3 3a.7.7 0 01-1 0A5.9 5.9 0 1112 3.6a.7.7 0 01.1 1L8.6 8 10 9.3A19.5 19.5 0 0135.7 9l.3.3L37.3 8 34 4.7a.7.7 0 010-1c2.3-2.3 6-2.3 8.3 0zM23 6.4C13.2 6.4 5.4 14 5.4 23.8a17 17 0 0017.6 17 17 17 0 0017.7-17c0-9.9-7.9-17.4-17.7-17.4zm12.8-2.6l-.2.1 6.5 6.5a4.7 4.7 0 00-6.3-6.6zm-31.4.6a4.7 4.7 0 00-.6 5.8l.1.2 6.5-6.5a4.7 4.7 0 00-6 .5zm19.7 18.2h-2.3c-1.3 0-2.3-1-2.3-2.4 0-1.3 1-2.3 2.3-2.3h4.5c.6 0 1.1-.5 1.1-1.1 0-.6-.5-1.1-1-1.1H24v-2.4c0-.6-.5-1-1-1a1 1 0 00-1.1 1v2.4c-2.5 0-4.5 2-4.5 4.5s2 4.6 4.4 4.6h2.3c1.3 0 2.3 1 2.3 2.4 0 1.3-1 2.3-2.3 2.3h-4.5a1 1 0 00-1.1 1.1c0 .6.5 1.1 1 1.1H22v2.4c0 .6.5 1 1 1 .6 0 1.1-.4 1.1-1v-2.4c2.5 0 4.5-2 4.5-4.5s-2-4.6-4.4-4.6z"/>
    </symbol> 

    <symbol id="icon-support" viewBox="0 0 45 45">
      <path d="M23 2c8.7 0 15.7 7 15.7 15.7 3.5.2 6.3 3.1 6.3 6.6v.8c0 3.7-3 6.7-6.7 6.7h-2.7c-.9 0-1.6-.7-1.6-1.6v-11c0-.8.7-1.5 1.6-1.5H37a14.1 14.1 0 00-28.2 0h1.5c.9 0 1.6.7 1.6 1.5v11c0 .9-.7 1.6-1.6 1.6H10l2.3 3.6a9 9 0 007.6 4.2h.6a3.2 3.2 0 013-2.3c1.7 0 3.1 1.4 3.1 3.1 0 1.7-1.4 3.2-3.1 3.2a3 3 0 01-3-2.4h-.6c-3.7 0-7-1.8-9-5L8 31.8h-.3C4 31.8 1 28.8 1 25v-.8c0-3.5 2.8-6.4 6.3-6.6C7.3 9 14.3 2 23 2zm.4 36.9c-.9 0-1.6.7-1.6 1.5a1.6 1.6 0 003.2 0c0-.8-.7-1.5-1.6-1.5zm-13-19.7H7.7a5 5 0 00-5.1 5.1v.8a5 5 0 005 5.1h2.8v-11zm28 0h-2.8v11h2.7a5 5 0 005.1-5v-.9a5 5 0 00-5-5zM23.4 7c.8 0 1.7 0 2.5.2.4.2.8.6.6 1 0 .3-.5.5-1 .5a10.6 10.6 0 00-9.8 3l-.6.2-.5-.2a.7.7 0 010-1C16.7 8.3 20 7 23.4 7z"/>
    </symbol>

    <symbol id="icon-security" viewBox="0 0 45 45">
      <path d="M37 5c1.5 0 2.6 1.1 2.7 2.5V21h1.8c.5 0 .8.4.9.8 0 1 .8 1.8 1.7 1.8.5 0 .8.3.9.7v6.1c0 1.7-.4 3.4-1.1 4.9-2 4-5 4.8-6.2 5.2l-.6.1c-1 0-5.9-2-7.4-6.9l-.1-.3h-27A2.7 2.7 0 010 31V7.7C0 6.3 1 5 2.5 5H37zm3.7 17.8h-7.2a3.6 3.6 0 01-2.4 2.5H31v5.2c0 2.8 1.2 5.1 3.5 6.9a10 10 0 002.6 1.4h.2a8 8 0 005-4.4c.7-1 1-2.3 1-3.6v-5.6a3.5 3.5 0 01-2.5-2.4zm-.7 5c.4.3.4.8.1 1.2v.1l-3.8 3.8a1 1 0 01-1.2 0H35l-2-2a1 1 0 011.3-1.3h.1l1.2 1.3 3.1-3.1a1 1 0 011.3 0zm-2-10.4H1.8v13.4c0 .4.3.8.7.8h26.7v-7.1c0-.5.4-.8.9-.8 1 0 1.7-.8 1.7-1.8 0-.5.4-.9.8-1H38v-3.5zm-27.7 8.2c.5 0 .9.4 1 .9 0 .5-.4 1-1 1H5.7c-.6 0-1-.4-1-1 0-.4.4-.8.9-.9h4.7zm6.5 0c.6 0 1 .4 1 1 0 .4-.4.8-.9.9h-4.7a1 1 0 01-1-1c0-.4.4-.8 1-.9h4.6zm3.9 0h4.6c.5 0 1 .4 1 1 0 .4-.4.8-1 .9h-4.6c-.6 0-1-.4-1-1 0-.4.4-.8.9-.9h4.7zM14 21c.5 0 .9.5.9 1s-.4 1-1 1H5.7a1 1 0 01-1-1c0-.5.5-1 1-1zm24-8.9H1.8v3.6H38V12zm-1-5.3H2.7c-.4 0-.8.3-.8.8v2.7H38V7.7c0-.5-.4-1-1-1z"/>
    </symbol> 
    <!-- choose guru -->


    <!-- how it works -->
    <symbol id="icon-hiw-get-work-done" viewBox="0 0 45 45">
      <path d="M39.7 3C41 3 42 4 42 5.1v28.5c0 1.2-1 2.2-2.1 2.3h-1l1.2 2a.8.8 0 01-.2 1h-.1l-5.2 3a.8.8 0 01-1-.2L30.9 37l-1.5.9a.8.8 0 01-1.2-.6v-10H27a2.6 2.6 0 01-.1-5.3h9a2.6 2.6 0 01.1 5.2h-4.1l6.9 4a.8.8 0 010 1.2v.1l-1.3.7.7 1.2h1.6c.4 0 .7-.3.8-.7V11.1h-36v22.4c0 .4.3.7.7.8h17a.8.8 0 010 1.5h-17c-1.1 0-2.1-1-2.2-2.1V5.3C3 4 4 3 5.1 3h34.6zm-10 24.8v8l1.1-.5a.8.8 0 011 .2l2.7 4.7 3.9-2.2-2.7-4.7a.8.8 0 01.2-1l.9-.5-7-4zm-16-13a7.1 7.1 0 110 14.2 7.1 7.1 0 010-14.2zm-.9 1.7a5.5 5.5 0 104.1 9.8l-3.8-3.8a.8.8 0 01-.3-.6zm23 7h-8.9a1 1 0 00-.1 2.2h9a1 1 0 000-2.1zM19 22.8h-3.5l2.4 2.5c.6-.7 1-1.6 1-2.5zm-4.7-6.2V21H19a5.5 5.5 0 00-4.7-4.6zm15.3 3h8c.4 0 .8.3.8.6s-.3.6-.7.6h-8c-.5 0-.8-.2-.8-.6 0-.3.3-.5.6-.5h8.1zm8-4.7c.4 0 .8.3.8.6s-.3.6-.7.6h-8c-.5 0-.8-.3-.8-.6s.3-.5.6-.6h8.1zm2-10.3H5.3c-.4 0-.7.3-.8.7v4.5h36V5.3c0-.4-.4-.8-.8-.8zm-31.4 2a.6.6 0 01.6.6.6.6 0 01-.6.6.6.6 0 01-.6-.6.6.6 0 01.6-.6zm28.2 0c.4 0 .8.3.8.6s-.3.6-.7.6H18c-.5 0-.8-.2-.8-.6 0-.3.3-.5.7-.5h18.6z"/>
    </symbol> 

    <symbol id="icon-hiw-hire-freelancer" viewBox="0 0 45 45">
      <path d="M7.7 30.6c.3 0 .6.3.6.6v9.4h28.4v-2.3c0-.4.3-.6.6-.6.4 0 .6.2.7.5V43c0 .8-.6 1.4-1.4 1.5H8.5c-.8 0-1.4-.6-1.5-1.3V31.3c0-.4.3-.7.7-.7zm29 11.2H8.3V43c0 .1 0 .2.2.2h28l.2-.1v-1.2zM22.5 0a6.4 6.4 0 016.4 6.1v5.3c0 2.3-1.3 4.4-3.2 5.5 3.3 1 6.3 3.2 8 6.3l.1.3h2.5c.9 0 1.6.7 1.7 1.5v11.3c0 .4-.3.7-.7.7a.7.7 0 01-.6-.6V25.1c0-.2-.1-.4-.3-.4H8.6c-.2 0-.3.1-.4.3v4c0 .4-.3.7-.6.7A.7.7 0 017 29v-3.8c0-1 .7-1.6 1.5-1.7h2.7c1.6-3.2 4.7-5.6 8.1-6.6-1.8-1-3-3-3.2-5.3V6.4C16.1 3 19 0 22.5 0zm0 29.6c1.5 0 2.7 1.2 2.7 2.6 0 1.5-1.2 2.7-2.7 2.7a2.7 2.7 0 01-2.7-2.7c0-1.4 1.2-2.6 2.7-2.6zm0 1.3c-.8 0-1.4.6-1.4 1.3 0 .8.6 1.4 1.4 1.4.8 0 1.4-.6 1.4-1.4 0-.7-.6-1.3-1.4-1.3zm-2-10.3l-1.2-2.3a12 12 0 00-6.4 4.9l-.2.3h7l.7-3-1.1-2.2zm2.9.6h-1.8l-.5 2.3H24l-.5-2.3zm2.3-3l-1.1 2.4.6 2.9h7.1a11.9 11.9 0 00-6.6-5.2zm-3-.4h-.5a9.6 9.6 0 00-.8 0H21l-.4.2 1 1.8h1.9l1-1.8-.9-.2a11 11 0 00-.8 0h-.1zm.8-11c-.9 1-2.7 2.4-5.7 2.7h-.4v1.9a5 5 0 005 5h.4a5 5 0 004.9-4.8V9.5a5.6 5.6 0 01-4.1-2.8zm-1-5.5a5 5 0 00-5 4.9v2c4-.3 5.5-3 5.5-3a.7.7 0 011.2 0 5 5 0 003.1 3h.3V6.4a5 5 0 00-5.1-5z"/>
    </symbol> 

    <symbol id="icon-hiw-make-payment" viewBox="0 0 45 45">
     <path d="M37 5c1.5 0 2.6 1.1 2.7 2.5V21h1.8c.5 0 .8.4.9.8 0 1 .8 1.8 1.7 1.8.5 0 .8.3.9.7v6.1c0 1.7-.4 3.4-1.1 4.9-2 4-5 4.8-6.2 5.2l-.6.1c-1 0-5.9-2-7.4-6.9l-.1-.3h-27A2.7 2.7 0 010 31V7.7C0 6.3 1 5 2.5 5H37zm3.7 17.8h-7.2a3.6 3.6 0 01-2.4 2.5H31v5.2c0 2.8 1.2 5.1 3.5 6.9a10 10 0 002.6 1.4h.2a8 8 0 005-4.4c.7-1 1-2.3 1-3.6v-5.6a3.5 3.5 0 01-2.5-2.4zm-.7 5c.4.3.4.8.1 1.2v.1l-3.8 3.8a1 1 0 01-1.2 0H35l-2-2a1 1 0 011.3-1.3h.1l1.2 1.3 3.1-3.1a1 1 0 011.3 0zm-2-10.4H1.8v13.4c0 .4.3.8.7.8h26.7v-7.1c0-.5.4-.8.9-.8 1 0 1.7-.8 1.7-1.8 0-.5.4-.9.8-1H38v-3.5zm-27.7 8.2c.5 0 .9.4 1 .9 0 .5-.4 1-1 1H5.7c-.6 0-1-.4-1-1 0-.4.4-.8.9-.9h4.7zm6.5 0c.6 0 1 .4 1 1 0 .4-.4.8-.9.9h-4.7a1 1 0 01-1-1c0-.4.4-.8 1-.9h4.6zm3.9 0h4.6c.5 0 1 .4 1 1 0 .4-.4.8-1 .9h-4.6c-.6 0-1-.4-1-1 0-.4.4-.8.9-.9h4.7zM14 21c.5 0 .9.5.9 1s-.4 1-1 1H5.7a1 1 0 01-1-1c0-.5.5-1 1-1zm24-8.9H1.8v3.6H38V12zm-1-5.3H2.7c-.4 0-.8.3-.8.8v2.7H38V7.7c0-.5-.4-1-1-1z"/>
    </symbol> 

    <symbol id="icon-hiw-post-job" viewBox="0 0 45 45">
      <path d="M37.5 2l.4.2c1.2.5 2 1.3 2.6 2.5l.3 1.3v7.6l-.2.7c-.5.9-1.2 1.3-2.2 1.3h-5.2c-.1.5-.1.8.2 1.2 1.1 1 2.2 2.2 3.2 3.4 1.4 1.9 2.1 4 2.2 6.5v9.5c0 2.3-.6 4.4-1.6 6.4-.2.5-.6.7-1 .5-.5-.2-.7-.6-.4-1.2 1-2.2 1.4-4.6 1.4-7v-7.6c0-3-1-5.7-3.3-7.8l-.7-.7v13.7a3 3 0 01-3.2 3 3 3 0 01-2.7-2l-1.1-3.6c-.3-.7-1.1-1-1.6-.4a508.6 508.6 0 00-.2 7.2c0 1 .3 1.9.6 2.7l1 2.5c.3.6.2 1-.3 1.2-.4.2-.9 0-1.1-.5l-1.1-2.8a9.3 9.3 0 01-.7-3.6v-3.8h-4c-.6 0-1-.3-1-.9 0-.5.4-.7 1-.7h4V30c0-1.3 1-2.3 2.1-2.5 1.2-.2 2.4.5 2.8 1.7l1 3.4c.4.9 1 1.3 1.7 1.2.7-.1 1.1-.7 1.1-1.7V7.6c0-1.5 0-3 1.2-4.1H8.9c-2 0-3.3 1.2-3.3 3.2v29.5c0 .8.3 1 1 1h10.2c.6 0 1 .3 1 .8 0 .4-.3.8-.8.8H6.6c-1.6 0-2.6-1-2.6-2.6V6.7C4 4.5 5 3 7.1 2.1l.2-.1h30.2zM20.2 36.7a1.1 1.1 0 010 2.2 1 1 0 01-1-1c0-.7.4-1.2 1-1.2zM14 26c1 0 1.8.7 1.8 1.7v4.1c0 1-.8 1.8-1.8 1.8h-4c-1 0-1.8-.8-1.8-1.9v-4c0-1 .8-1.7 1.8-1.7h4zm0 1.8h-3.9v4h4v-4zM14 15c1 0 1.8.7 1.9 1.8v4c0 1-.9 1.8-2 1.8h-3.8c-1 0-1.8-.8-1.8-1.9V17c0-1.2.7-2 1.8-2H14zm7.3 5.4H26c.6 0 .9.4.9 1.1 0 .7-.3 1-.9 1h-8.1c-.5 0-.9-.4-.8-1 0-.7.3-1 .8-1h3.5zM14 16.8h-4v4h4v-4zM36.2 3.5a3 3 0 00-3 3V14h5.3c.4 0 .7-.3.7-.9V6.5a3 3 0 00-3-3zm-8.3 8.2c.7 0 1 .4 1 1 0 .8-.3 1.2-1 1.2h-5.5c-.7 0-1-.4-1-1.1 0-.7.3-1 1-1h5.5zm-9.9 0c.6 0 1.2.5 1.1 1.1 0 .6-.5 1-1 1a1 1 0 01-1.1-1c0-.6.4-1 1-1zm-4-5.4c1 0 1.8.7 1.9 1.8v4c0 1-.8 1.8-2 1.8h-3.8c-1 0-1.8-.8-1.8-1.9V8.1c0-1 .7-1.8 1.8-1.8h4zM14 8h-3.9v4h4V8z"/>
    </symbol> 

    <symbol id="icon-hiw-create-profile" viewBox="0 0 45 45">
      <path d="M33.8 3C35 3 36 4 36 5.2v8.6a.8.8 0 01-1.5.1V5.2c0-.4-.3-.7-.7-.7H5.3c-.4 0-.7.3-.7.6v35.5c0 .4.3.7.6.7h28.6c.4 0 .7-.3.8-.6v-5.8a.8.8 0 011.5-.1v5.9c0 1.2-1 2.2-2.2 2.3H5.3c-1.2 0-2.2-1-2.3-2.2V5.3C3 4.1 4 3.1 5.2 3h28.6zm-10 34.2a.8.8 0 010 1.6h-4.2a.8.8 0 01-.1-1.6h4.3zm15-24.3a3 3 0 012.6.3c1.5.9 2 2.9 1.2 4.5l-9.9 17-.2.2-5 3.7a.8.8 0 01-1.2-.7l.6-6.2.1-.3 9.9-17c.4-.8 1.1-1.3 2-1.5zM28.5 33l-.4 3.2 2.6-2-2.2-1.2zm-4.6-.3a.8.8 0 010 1.6H12.7a.8.8 0 01-.1-1.5h11.2zm-14.4 0c.2 0 .4.1.5.3a.8.8 0 010 1 .8.8 0 01-1.1 0 .8.8 0 010-1c.1-.2.3-.3.6-.3zm27.3-15l-8 13.7 3 1.7 8-13.6-3-1.7zm-13 10.7A.8.8 0 0124 30H12.7a.8.8 0 01-.1-1.5h11.2zm-14.3 0c.2 0 .4 0 .5.2a.8.8 0 010 1.1l-.5.2c-.3 0-.5 0-.6-.2a.8.8 0 010-1.1l.6-.2zm0-4.4a.8.8 0 01.7.8.8.8 0 01-.7.8c-.3 0-.5-.1-.6-.3a.8.8 0 010-1c.1-.2.3-.3.6-.3zm3.3 0h11a.8.8 0 01.2 1.5H12.7a.8.8 0 01-.1-1.5h11.2zm6.9-16.9a7.2 7.2 0 110 14.4 7.2 7.2 0 010-14.4zm0 9.7c-1.5 0-2.7.8-3.4 2a5.6 5.6 0 006.8 0 4 4 0 00-3.4-2zm21-2.4a1.7 1.7 0 00-2.4.7l-.7 1.3 3 1.7.7-1.3a1.7 1.7 0 00-.6-2.4zm-21-5.7a5.6 5.6 0 00-4.6 9c.6-1 1.4-1.6 2.3-2-.3-.4-.5-1-.5-1.5v-.7a2.8 2.8 0 015.6-.2v.7c0 .6-.2 1.2-.6 1.7 1 .4 1.7 1 2.3 2 .7-1 1-2.1 1-3.4 0-3.1-2.4-5.6-5.5-5.6zm0 3.5c-.7 0-1.2.5-1.3 1.2v.6a1.3 1.3 0 002.5.1v-.6c0-.7-.5-1.3-1.2-1.3z"/>
    </symbol> 

    <symbol id="icon-hiw-find-work" viewBox="0 0 45 45">
      <path d="M28.02 1l10.36 10.36v13.58h-1.42V12.36H27V2.42H6.42v39.77h28.39v1.42H5V1h23.02zm1.65 22.72a7.98 7.98 0 016.17 13.04l4.55 4.56c.31.3.31.8 0 1.1-.3.32-.8.32-1.11 0l-4.56-4.54a7.98 7.98 0 11-5.05-14.16zm.07 1.9a6.16 6.16 0 10.01 12.32 6.16 6.16 0 00-.01-12.32zm-12.11 4.05c.22.28.2.67-.04.93l-.07.07-3.56 2.84a.7.7 0 01-.85.02l-.09-.07-1.42-1.42a.7.7 0 01.92-1.08l.08.07.97.97 3.06-2.44a.7.7 0 011 .11zm0-7.81c.22.28.2.67-.04.93l-.07.07-3.56 2.84a.7.7 0 01-.85.02l-.09-.07-1.42-1.42a.7.7 0 01.92-1.08l.08.07.97.97 3.06-2.44a.7.7 0 011 .11zm4.41 1.86a.71.71 0 01.1 1.42H19.2a.71.71 0 01-.1-1.4l.1-.02h2.84zm-4.41-9.67c.22.28.2.67-.04.93l-.07.07-3.56 2.84a.7.7 0 01-.85.02l-.09-.07-1.42-1.43a.7.7 0 01.92-1.07l.08.07.97.97 3.06-2.44a.7.7 0 011 .1zm12.93 1.86a.71.71 0 01.1 1.42H19.2a.71.71 0 01-.1-1.41h11.47zM28.43 3.42v7.52h7.52l-7.52-7.52z"/>  
    </symbol> 

    <symbol id="icon-hiw-get-paid" viewBox="0 0 45 45">
      <path d="M36 13.1c3.8 0 7.8.9 8 2.8v18c0 2-4.1 3-8 3-3.6 0-7.6-1-7.8-2.9V16c0-2 4-2.9 7.9-2.9zm6.6 19.6C41 33.5 38.5 34 36 34c-2.3 0-4.7-.3-6.2-1l-.3-.2V34c.1.4 2.3 1.5 6.5 1.5 4 0 6.2-1 6.4-1.5v-1.2zm0-3C41 30.7 38.5 31 36 31c-2.3 0-4.7-.3-6.2-1l-.3-.1V31c.1.4 2.3 1.5 6.5 1.5 4 0 6.2-1 6.4-1.4v-1.2zm0-3C41 27.7 38.5 28 36 28c-2.3 0-4.7-.4-6.2-1l-.3-.2V28c.1.4 2.3 1.4 6.5 1.4 4 0 6.2-1 6.4-1.4v-1.2zM37.6 8c.2 0 .5.2.5.5V11c0 .3-.2.6-.6.6a.6.6 0 01-.6-.5V9.3H2.2v16.5H26c.4 0 .6.3.6.7 0 .3-.2.6-.5.6H1.5a.6.6 0 01-.6-.5v-18c0-.3.2-.5.5-.6h36.1zm5 15.8C41 24.6 38.5 25 36 25c-2.3 0-4.7-.3-6.2-1l-.3-.2V25c.1.4 2.3 1.5 6.5 1.5 4 0 6.2-1 6.4-1.5v-1.2zM7.7 11h5.4c.3 0 .6.3.6.6s-.2.6-.5.6H7.8l-2.8 3V20l2.6 2.9H13c.3 0 .6.3.6.6s-.2.6-.5.6H7.3L7 24l-3-3.4-.1-.3v-5.8l.2-.1 3.2-3.2.3-.2h5.5zm11.2 0c3.4 0 6.3 3 6.3 6.6 0 3.6-2.9 6.5-6.3 6.5-3.5 0-6.4-3-6.4-6.5 0-3.7 2.9-6.6 6.4-6.6zm23.7 9.8C41 21.6 38.5 22 36 22c-2.3 0-4.7-.3-6.2-1l-.3-.2V22c.1.4 2.3 1.5 6.5 1.5 4 0 6.2-1 6.4-1.5v-1.2zm-23.7-8.6a5.3 5.3 0 00-5.2 5.4c0 3 2.3 5.3 5.2 5.3 2.8 0 5.1-2.4 5.1-5.3 0-3-2.3-5.4-5.1-5.4zm0 2c.3 0 .7.3.7.8h.7c.4 0 .7.3.7.7 0 .4-.3.7-.7.7h-1.8l-.4.2.4.2h.7c1 0 1.8.7 1.8 1.7 0 .8-.6 1.5-1.4 1.6 0 .5-.4.8-.7.8a.7.7 0 01-.8-.7h-.7a.7.7 0 01-.7-.8c0-.4.3-.7.7-.7h1.8l.4-.2-.4-.2h-.9c-.8 0-1.6-.8-1.6-1.7 0-.8.6-1.5 1.4-1.6 0-.5.4-.8.8-.8zM42.6 18a18 18 0 01-6.6 1c-2.3 0-4.7-.3-6.2-1l-.3-.1V19c.1.4 2.3 1.5 6.5 1.5 4 0 6.2-1 6.4-1.4v-1.2zM36 14.6c-4 0-6.2 1-6.5 1.4.1.5 2.3 1.6 6.5 1.6s6.3-1.1 6.5-1.5c-.2-.5-2.3-1.5-6.5-1.5zM30.3 11c.3 0 .6.3.6.6s-.2.6-.5.6h-5.8a.6.6 0 01-.6-.6c0-.3.2-.6.5-.6h5.8z"/>
    </symbol> 

    <symbol id="icon-hiw-manage-jobs" viewBox="0 0 45 45">
      <path d="M39.773 3a2.23 2.23 0 012.221 2.068l.006.159v27.609a2.23 2.23 0 01-2.068 2.22l-.159.007h-.763l1.11 1.92a.742.742 0 01-.176.948l-.096.066-5.029 2.904a.74.74 0 01-.948-.177l-.066-.095-2.607-4.517-1.488.865a.742.742 0 01-1.107-.53l-.008-.112v-9.733h-1.29a2.526 2.526 0 01-2.524-2.524 2.526 2.526 0 012.358-2.518l.166-.005h8.61a2.526 2.526 0 012.523 2.523 2.527 2.527 0 01-2.358 2.518l-.166.006h-3.807l6.673 3.853a.741.741 0 01.091 1.223l-.093.063-1.266.726.641 1.111h1.62c.375 0 .687-.28.736-.642l.007-.1v-21.82H5.484v21.82c0 .375.28.686.642.735l.1.007h16.431a.742.742 0 01.101 1.478l-.1.007H6.226a2.23 2.23 0 01-2.221-2.068L4 32.835V5.228a2.23 2.23 0 012.068-2.221L6.227 3h33.546zM30.08 27.145v7.9l1.016-.59a.741.741 0 01.95.174l.066.096 2.609 4.519 3.743-2.161-2.61-4.519a.742.742 0 01.178-.948l.097-.067.793-.454-6.842-3.95zm-15.715-12.63c3.81 0 6.909 3.1 6.909 6.91 0 3.809-3.1 6.908-6.91 6.908s-6.908-3.1-6.908-6.909a6.916 6.916 0 016.909-6.909zm-.785 1.629a5.347 5.347 0 00-4.554 5.28 5.345 5.345 0 005.339 5.34 5.313 5.313 0 003.177-1.052l-3.732-3.733a.781.781 0 01-.23-.555zm22.335 6.895h-8.61a1.04 1.04 0 00-.112 2.072l.113.006h8.61a1.04 1.04 0 001.038-1.039 1.04 1.04 0 00-1.039-1.039zm-16.27-.83H16.26l2.392 2.392a5.311 5.311 0 00.993-2.392zm-4.495-6.065v4.495h4.495a5.35 5.35 0 00-4.495-4.495zm14.91 2.976h7.757c.402 0 .727.258.727.576 0 .29-.269.528-.62.57l-.107.006H30.06c-.402 0-.728-.258-.728-.576 0-.29.27-.528.62-.57l.108-.006h7.757zm7.757-4.606c.402 0 .727.258.727.576 0 .289-.269.528-.62.57l-.107.006H30.06c-.402 0-.728-.258-.728-.576 0-.29.27-.528.62-.57l.108-.006h7.757zm1.955-10.03H6.227a.743.743 0 00-.736.641l-.007.1V9.53h35.032V5.227a.743.743 0 00-.743-.743zm-30.59 1.97c.151 0 .3.061.407.168a.58.58 0 01.169.407.58.58 0 01-.17.407.58.58 0 01-.406.17.58.58 0 01-.407-.17.58.58 0 01-.169-.407.58.58 0 01.576-.576zm27.446 0c.423 0 .766.257.766.575 0 .29-.284.529-.653.57l-.113.006H18.584c-.423 0-.766-.258-.766-.576 0-.289.284-.528.653-.57l.113-.005h18.044z"/>
    </symbol> 
    <!-- how it works -->

    <!-- how it works -->
    <symbol id="icon-membership-premium" viewBox="0 0 45 45">
      <path d="M44 15.8a.7.7 0 000-.4l-.1-.1-7-11-.1-.1-.2-.1-.3-.1H9.5l-.3.2v.1L2 15.3v.1a.7.7 0 000 .6v.1l20.3 24.7a.7.7 0 00.3.2h.7l.1-.2L44 16.1V15.8zM24.5 5.4h10.8l-3.4 9-7.4-9zm6.1 9.6H15.4L23 5.8l7.6 9.2zm-16.5-.6l-3.4-9h10.8l-7.4 9zm17 2L23 38l-8.1-21.6H31zm5.4-10.2L42 15h-8.9l3.4-8.8zm-27 0l3.3 8.8H4l5.5-8.8zm3.8 10.2l7.6 20.3L4.2 16.4h9.1zm11.4 20.8l8-20.8h9.1L24.7 37.2z"/>
    </symbol>

    <symbol id="icon-membership-bids" viewBox="0 0 45 45">
    <path d="M33.9 9c.3 0 .6.3.6.7 0 1.6 1.7 3.2 3.4 3.2.3 0 .6.3.7.6v8.4a6.8 6.8 0 11-7.2 5.6H13.7a.7.7 0 01-.7-.7c0-.3.3-.6.6-.6h18.2c1-2.3 3-4 5.4-4.3v-7.7a5 5 0 01-4-3.7v-.2H5c-.2 1-.6 1.8-1.2 2.5-.7.7-1.4 1.2-2.2 1.4h-.3v8c1 .2 1.8.7 2.5 1.4.6.7 1 1.5 1.1 2.3v.3H11c.4 0 .7.3.7.6 0 .4-.3.6-.6.7H4.3a.7.7 0 01-.7-.7c0-1.7-1.4-3.3-3-3.3A.7.7 0 010 23v-9.4c0-.4.3-.6.7-.6 1.6 0 3-1.6 3-3.3 0-.4.2-.6.6-.7H34zm4.3 13.7a6 6 0 100 12 6 6 0 000-12zM38 25c.2 0 .4 0 .5.2V28h2.3a1 1 0 010 1h-2.3v3l-.5.1-.5-.1v-3h-2.3l-.2-.5c0-.2 0-.4.2-.5h2.3v-2.7l.5-.2zM15.8 14.4c.2 0 .4 0 .6.2l.2.8v6.2c0 .3 0 .5-.2.7l-.6.2c-.3 0-.5 0-.6-.2-.2-.2-.2-.4-.2-.7v-6.2c0-.4 0-.6.2-.8l.6-.2zm13.8 0c.5 0 1 0 1.3.2.4.1.6.3.9.5l.5.6.2.6-.2.5c-.2.2-.3.3-.5.3s-.4 0-.5-.2l-.3-.4a2 2 0 00-.5-.7c-.2-.2-.5-.3-1-.3-.4 0-.8.1-1 .3-.3.2-.4.4-.4.7l.1.4.4.3.5.1a19.9 19.9 0 002 .6l.9.4a1.9 1.9 0 01.8 1.7c0 .5-.1 1-.4 1.3-.2.4-.6.7-1 .9-.5.2-1.1.3-1.8.3a4 4 0 01-2-.4c-.3-.2-.6-.5-.8-.9-.2-.3-.4-.7-.4-1l.2-.5.6-.2c.1 0 .3 0 .4.2l.3.4.3.7.5.4.9.2a2 2 0 001.2-.4c.3-.2.4-.5.4-.8 0-.3 0-.5-.2-.6l-.7-.4-1-.3-1.4-.4-1-.8c-.2-.3-.3-.7-.3-1.1 0-.4.1-.8.4-1.2.2-.3.5-.6 1-.7.5-.2 1-.3 1.6-.3zm-19.2.1l1 .1a2.2 2.2 0 011.3.7 1.8 1.8 0 01.4 1.2c0 .8-.4 1.4-1.2 1.7 1 .4 1.6 1 1.6 2a2.1 2.1 0 01-1.3 2l-.8.1H7.8l-.8-.1-.2-.8v-5.9c0-.3.1-.6.3-.7.1-.2.4-.3.7-.3h2.6zm11.1 0c.6 0 1 0 1.5.2.4 0 .7.3 1 .5.9.7 1.3 1.8 1.3 3.2l-.1 1.3-.4 1-.7 1-.7.4-.8.2h-3.8a.6.6 0 01-.3-.4v-6.4c0-.3 0-.6.2-.7.1-.2.4-.3.7-.3h2.1zM10.1 19H8.4v2.3h1.8c1.1 0 1.6-.4 1.6-1.2 0-.4-.1-.7-.4-.8-.3-.2-.7-.3-1.3-.3zm11-3.1h-1V21h1.8l.5-.1.4-.2c.6-.5.8-1.3.8-2.4 0-.7 0-1.3-.3-1.7l-.9-.8-1.3-.1zm-11.3 0H8.4v2H10c.4 0 .8 0 1-.2.2 0 .4-.2.5-.4l.1-.5c0-.4-.1-.6-.4-.8l-1.3-.2z"/>
    </symbol>

    <symbol id="icon-membership-ranking" viewBox="0 0 45 45">
    <path d="M22.4 0l.5.4a20 20 0 017.8 16v4.1L35 24v11h-6v-5h-1.7v9.8h-1.7v-9.7h-2.4v3.3h-1.7V30h-2.4v14.4h-1.7V30h-1.7v5H10V23.8l4.1-3.4v-4.2A20 20 0 0122 .3l.5-.3zm-4.9 37.5v2.3-2.3zm13.2-14.8v10.7h2.5v-8.7l-2.5-2zm-16.6 0l-2.4 2v8.7H14V22.7zm14.4-10.9H16.4c-.4 1.5-.6 3-.6 4.5v12.1h5.8v-5h1.7v5H29v-12c0-1.6-.2-3.1-.6-4.6zm-6 4.2a.8.8 0 01.1 1.6h-.1a.8.8 0 010-1.7zm0-13.9c-2.6 2.1-4.6 5-5.7 8H28c-1-3-3-5.9-5.6-8z"/>
    </symbol>

    <symbol id="icon-membership-directMessages" viewBox="0 0 45 45">
    <path d="M29.6 4C36.9 4 44 9.2 44 16.4c0 2.9-1.1 5.7-3.2 7.9a5 5 0 001.3 4.7c.3.3.3.6.2 1-.1.2-.4.4-.8.4a9 9 0 01-6.2-2.5c-1.4.5-3.2.8-5 .9-.4 6.4-6.5 11.5-13.9 11.5-2 0-4-.3-5.7-.9A9 9 0 014.5 42a.8.8 0 01-.8-.5c-.1-.3 0-.7.2-1A5 5 0 005.2 36c-2-2.3-3.2-5-3.2-8 0-7 6.6-12 13.6-12.3C16.1 9 22.2 4 29.6 4zM16.4 17.2c-6.9 0-12.8 5-12.8 10.8 0 2.5 1 5 3 6.9l.1.3c.5 1.7.3 3.4-.5 5a7.4 7.4 0 003.7-2.3c.2-.2.6-.3 1-.2 1.4.6 3.6 1 5.5 1 6.8 0 12.3-4.8 12.3-10.7 0-6.2-5.7-10.8-12.3-10.8zm-7 13.2H23c.5 0 .8.4.8.9 0 .4-.3.7-.7.8H9.4a.8.8 0 01-.8-.8c0-.5.3-.8.7-.9H23zM29.6 5.7c-6.5 0-11.8 4.3-12.3 9.9 2 .1 4 .6 5.7 1.4l.4.2h13.2c.5 0 .8.4.8.8 0 .5-.3.8-.7.9H25.8c2.7 2.1 4.2 5 4.4 8.2a16 16 0 004.9-1c.3 0 .7 0 .9.3 1 1 2.3 1.8 3.7 2.2-.8-1.5-1-3.3-.5-5 0 0 0-.2.2-.3a10 10 0 002.9-7c0-5.7-5.9-10.6-12.8-10.6zM9.4 25.5c.4 0 .8.3.8.8s-.4.8-.8.8a.8.8 0 01-.8-.8c0-.5.3-.8.8-.8zm13.6 0c.5 0 .8.3.8.8 0 .4-.3.8-.7.8H12.7a.8.8 0 01-.9-.8c0-.4.4-.8.8-.8H23zm0-13.2c.5 0 .8.3.8.8 0 .4-.3.8-.8.8a.8.8 0 01-.8-.8c0-.5.3-.8.8-.8zm13.6 0c.5 0 .8.3.8.8 0 .4-.3.8-.8.8H26.3a.8.8 0 01-.8-.8c0-.5.3-.8.8-.8z"/>
    </symbol>
    

    <!-- About -->
    <symbol id="icon-about-mission" viewBox="0 0 45 45">
     <path d="M42.8 39l-8.6-13.8c-.2-.4-.7-.6-1.1-.6-.5 0-.9.2-1.1.6L30.9 27c-.2.3-.1.6.2.8.3.2.6 0 .8-.2l1.1-1.8h.1l8.7 13.9h-4.9L23.6 18.4 23 18v-4l1.5.1c1.4 0 2.6-.5 3.9-1 1.7-.6 3.4-1.2 5.2-.5h.7l.3-.6V5c0-.3-.2-.5-.5-.6-2.2-1-4.2-.3-6.1.4-1.8.7-3.5 1.3-5.4.5h-.5c-.2.2-.3.3-.3.5v12c-.2 0-.4.2-.5.4L15 28.4l-2.1-3.3c-.2-.4-.6-.6-1.1-.6-.4 0-.9.2-1 .6L2.1 39c-.3.4-.3 1 0 1.3.2.4.6.7 1 .7h38.5c.5 0 1-.3 1.1-.7.3-.4.3-.9 0-1.3zM23.1 6.8c2 .5 3.7-.1 5.4-.7 1.7-.7 3.3-1.3 5-.7v5.8c-2-.5-3.7.1-5.4.8-1.7.6-3.3 1.2-5 .6V6.8zM11.5 36.5c.2-.3.1-.7-.2-.8a.6.6 0 00-.8.1l-2.4 4H3.3c-.1 0 0-.1 0-.1l8.5-13.9h.1l2.5 3.8-2.4 3.9c-.2.3-.1.6.2.8.3.2.6 0 .8-.2L22.4 19h.1l13 20.9h-26l2-3.3z"/>
    </symbol>

    <symbol id="icon-about-vision" viewBox="0 0 45 45">
    <path d="M43.98 22.14A15.9 15.9 0 0027.36 7.02a15.89 15.89 0 00-15.15 15.12H9.95L7.83 18.7a.73.73 0 00-.63-.34H.73a.73.73 0 00-.62 1.12l2.12 3.4L.1 26.3a.73.73 0 00.62 1.12H7.2c.26 0 .5-.13.63-.34l2.15-3.47h2.23a15.9 15.9 0 0016.62 15.12 15.88 15.88 0 0015.15-16.58zM6.8 25.95H2.05l1.43-2.3h4.75l-1.43 2.3zm-3.32-3.81l-1.43-2.3H6.8l1.43 2.3H3.48zm24.65 15.14c-7.7 0-14.05-6.01-14.44-13.68h3a11.43 11.43 0 0022.83-1.46 11.43 11.43 0 00-22.83 0h-3A14.43 14.43 0 0128.1 8.46a14.42 14.42 0 0114.46 14.4 14.42 14.42 0 01-14.42 14.42zm-.04-15.14h-.75c.4-.42 1.07-.43 1.49-.02.42.4.43 1.06.02 1.48a1.05 1.05 0 01-1.5 0h.74a.73.73 0 100-1.46zm.75 3.13a2.51 2.51 0 10-3.14-3.13h-3.07a5.51 5.51 0 110 1.46h3.07a2.52 2.52 0 003.14 1.67zm-.01 4.52a6.97 6.97 0 10-7.68-7.65h-3a9.97 9.97 0 0119.9 1.46 9.97 9.97 0 01-19.9 0h3a6.98 6.98 0 007.68 6.2z"/>
    </symbol>

    <symbol id="icon-about-proposition" viewBox="0 0 45 45">
    <path d="M38 13.1V7c0-.7-.4-1.3-1-1.6a2 2 0 00-2 0 47 47 0 01-19 5.5H9.6a3 3 0 00-3 2.6h-1c-1.4 0-2.5 1-2.5 2.4v5.3c0 1.3 1.1 2.4 2.5 2.4h1.3c0 1 .8 2 1.7 2.3l4.5 12a2 2 0 001.8 1.2h4.5a2 2 0 001.6-.8c.4-.5.5-1.1.3-1.7l-3.9-10.3c6.3.7 12.2 2.5 17.7 5.5a2 2 0 002 0c.6-.4 1-1 1-1.7v-6.2a5.5 5.5 0 004.8-5.3c0-2.8-2-5-4.8-5.4zM6.7 21.7H5.5a.6.6 0 01-.6-.6v-5.3c0-.3.3-.5.6-.5h1.2v6.4zM9.3 24a1 1 0 01-.6-1v-9.4c0-.5.4-1 1-1H15v11.5H9.7a1 1 0 01-.4 0zm10 13h-4.5l-4.1-11h4.5l4.1 11zM36 30c-6-3.3-12.4-5.2-19.1-5.8V12.6A48.9 48.9 0 0036 6.9V30zm2-8.2v-7c1.6.4 2.9 1.8 2.9 3.6 0 1.7-1.3 3.1-3 3.4z"/>
    </symbol>

    <symbol id="icon-about-accountability" viewBox="0 0 45 45">
    <path d="M32.5 29.5h.3L37 31l.3-.6c0-.3.4-.5.8-.4l3.5 1.3c.3.1.5.5.4.8l-3.5 9.5a.6.6 0 01-.8.3l-3.5-1.3a.6.6 0 01-.4-.8l.2-.6h-.3l-3.7 1a.6.6 0 01-.5 0l-12.9-4.7A2.6 2.6 0 0115 33a2.5 2.5 0 013.4-2l3.9 1.4c.3-.7 1-1.2 1.8-1.3zm5.6 2l-3 8.2 2.4.8 3-8.2-2.4-.9zm-5.5-.7l-8.4 1.4a1.3 1.3 0 00-1 1.5c.1.7.8 1.1 1.4 1l7.1-1.3.2 1.3-7 1.2a2.5 2.5 0 01-3-2.4l-4-1.4a1.3 1.3 0 00-1.7 1c0 .6.3 1.2.9 1.4L29.8 39l3.6-1.2h.4l.6.2 2.1-6-4-1.3zM9.6 4c.4 0 .7.3.7.6V6h.5L15 4l.2-.1H22c1.2 0 2.3.5 3.1 1.3l5.1 5c.9.9 1 2.2.4 3.1-.5.8-1.4 1.3-2.3 1.1-.2.6-.6 1.1-1 1.6v3.6c0 1-.8 1.9-1.8 1.9v6.2c0 .3-.2.5-.4.6l-1.2.6h-.6l-1.3-.6a.6.6 0 01-.3-.6v-6.2c-1 0-1.9-.9-1.9-2V16a5 5 0 01-1-2 5 5 0 01-4 1.8c-1.9 0-3.9-1-4.3-2.5h-.1v1.3c0 .3-.3.6-.6.6h-5a.6.6 0 01-.7-.6v-10c0-.4.3-.7.6-.7zm14.5 17.6h-1.3v5.8l.7.3.6-.3v-5.8zm-.6-6.3a5 5 0 00-2 .7l1 .4a1.3 1.3 0 012.2 1 1.3 1.3 0 01-2.4.3A5 5 0 0121 17v2.6c0 .3.2.6.6.6h3.8c.3 0 .6-.3.6-.6v-3.4c-.8-.6-1.6-.9-2.5-1zM25 12c-.4.8-1.2 1.3-2.2 1.3h-3c0 .6.3 1.2.7 1.7.9-.6 2-1 3-1s2 .4 3 1l.5-1-.2-.3zm-3-6.8h-6.6L11.2 7h-.9v5h.6c.4 0 .6.3.6.7 0 1 1.6 1.9 3.2 1.9s3.1-1 3.1-2c0-.3.3-.6.6-.6h4.4a1.3 1.3 0 100-2.5H16V8.4h5.2a5 5 0 017.4 4.9c.4 0 .8-.2 1-.5.2-.5.2-1.1-.3-1.5l-5-5.1c-.7-.6-1.5-1-2.3-1zm-13 0H5.3V14H9V5.3zm15.7 4c.3.3.6.8.6 1.3l2 1.9a3.8 3.8 0 00-2.6-3.3z"/>
    </symbol>

    <symbol id="icon-about-integrity" viewBox="0 0 45 45">
    <path d="M22.7 7h1.4c3 0 5.5 2.5 5.6 5.6v.4c0 .5-.2 1-.6 1.2v1.6a6 6 0 01-2 4.5l-.2.1v1.1c0 .3.1.5.4.7l3.9 1.8.9.6h.1c.2-.2.3-.5.3-.7v-1c-.8-.8-1.3-2-1.3-3.3V19c-.4 0-.6-.4-.6-.7v-1.5c0-2.4 1.7-4.4 3.9-4.4h1.3c2.1 0 3.9 2 3.9 4.4v1.5c0 .3-.3.7-.6.7v.7c0 1.3-.6 2.5-1.4 3.3v1c0 .3.2.5.4.7l3.5 1.9A3 3 0 0143 29v7.4c0 .4-.3.7-.6.7-.4 0-.6-.3-.6-.7V28.6l-1 1c-.3.3-.4.7-.4 1.1v5.7c0 .4-.3.7-.7.7-.3 0-.6-.3-.6-.7v-5.7c0-.7.3-1.5.8-2l1-1.1-3.3-1.9a2 2 0 01-.3-.2l-1.6 1.7v9.2c0 .4-.2.7-.6.7-.3 0-.6-.3-.6-.7v-9.2L33 25.6l-.2.1c.3.4.4 1 .4 1.4v9.4c0 .4-.3.7-.6.7a.7.7 0 01-.7-.6v-9.5L30.1 29c-.2.2-.3.6-.4.9v6.6c0 .4-.3.7-.6.7a.7.7 0 01-.7-.6V30c0-.8.2-1.4.7-2l.1-.1 2.1-2.2-.5-.4-.2-.1-3.7-1.8-2.8 3v10c0 .4-.3.7-.7.7a.7.7 0 01-.6-.6V26.4l-2.8-3-3.7 1.8c-.2 0-.4.2-.6.4h-.1l2 2.3c.6.5.8 1.1.9 1.8v6.7c0 .4-.3.7-.7.7a.7.7 0 01-.6-.6V30c0-.4-.1-.7-.4-1L15 27v9.4c0 .4-.3.7-.7.7a.7.7 0 01-.6-.6v-8.2a.6.6 0 01-.7.2l-.7-.4-.2-.1-1.7 1.6v7c0 .3-.2.6-.6.6a.7.7 0 01-.6-.6v-7L7.6 28l-.2.1-.1.1L5 29.4l-.3.2 1.4 1.5c.5.5.8 1.1.8 1.8v3.6c0 .4-.3.7-.6.7a.7.7 0 01-.7-.6V33c0-.3 0-.6-.3-1l-1.1-1v5.5c0 .4-.3.7-.7.7a.7.7 0 01-.6-.6v-5.9c0-1 .5-2 1.3-2.4l.2-.1L6.7 27c.2-.1.4-.3.4-.6v-1.6a5 5 0 01-2-3.8v-1.7a5 5 0 012.1-4.2 3 3 0 010-.8c0-1.6 1.1-2.9 2.6-2.9s2.7 1.3 2.7 2.9l-.1.8a5 5 0 012.1 4v1.6a5 5 0 01-1.8 4l-.2.1v1.5c0 .3.1.5.3.6l.1.1.6.3.2.1c0-1.4.7-2.7 1.8-3.3h.2l3.8-1.9c.3 0 .4-.3.5-.6v-1.2a6 6 0 01-2.1-4.3v-.6l-.2-.1c-.3-.2-.5-.6-.5-1v-1.5c0-3.2 2.4-5.8 5.3-5.9h1.6zM11.2 26.3v-.8a4.5 4.5 0 01-2.5 0h-.3v1.4l1.4 1.5 1.5-1.5v-1.4zm25.3-2.6a3.5 3.5 0 01-2.7 0v.2l-.1.5 1.4 1.6 1.5-1.6-.1-.5zm-11-2.2v-.3a5.3 5.3 0 01-4 .1h-.2v.2c0 .4 0 .7-.2 1l-.1.1 2.4 2.6 2.5-2.6c-.2-.2-.3-.6-.3-.9v-.5zm-17.1-2c-.7.6-1.4 1-2 1v.2c0 2 1.5 3.7 3.4 3.7s3.4-1.5 3.5-3.5l-1.3.2a5 5 0 01-2.4-.7c-.5-.3-1-.6-1.2-.9zm25.5-2c-.5.5-1 .8-1.5 1v1.1c0 1.7 1.3 3 2.7 3 1.5 0 2.7-1.3 2.7-3v-.8c-1.9-.2-3.3-.9-3.9-1.3zm-9.8-9.1h-1.4a4.4 4.4 0 00-4.2 4.3v1.6c.3 0 .7-.3 1-.6.3-.3.7-.3 1 0 .2.3.1.7-.1 1a4 4 0 01-1 .7l-.2.1v.3c0 2.5 1.9 4.5 4.2 4.5 2.3 0 4.2-1.9 4.3-4.3v-1.4c-1.8.2-4.8.2-6.8-2a.7.7 0 010-1c.2-.2.6-.2.9 0 .7.7 2.6 2.3 6.6 1.5v-.2c0-2.5-2-4.5-4.3-4.5zM9.8 15.7a3.6 3.6 0 00-3.5 3.5c.5-.1 1-.4 1.7-1a.6.6 0 011 0s1.5 2 4 1.4h.3v-.3c0-2-1.6-3.6-3.5-3.6zm26-2h-1.3c-1.5 0-2.7 1.3-2.7 3v.6a4 4 0 001.6-1c0-.2.3-.3.4-.3l.4.1s1.6 1.2 4.3 1.4v-.8c0-1.7-1.2-3-2.7-3zm-26-1a1.5 1.5 0 00-1.4 1.8 4.5 4.5 0 012.8 0v-.2c0-.8-.6-1.5-1.4-1.5z"/>
    </symbol>


    <symbol id="icon-about-respect" viewBox="0 0 45 45">
    <path d="M39.8 34.8l-2-1.8a2.4 2.4 0 00-2-3.5h-.2a2.3 2.3 0 00-2.3-2.4c-.6 0-1 .2-1.5.5l-1.5-1.3c-1-1-1.6-2.2-1.4-3.6l.5-4.3c.2-2-.1-4-1-6l-3.7-8.7a1.2 1.2 0 00-1.7-.6h-.3c-.6-.2-1.1 0-1.4.6l-3.8 8.8c-.8 1.8-1.1 3.9-.9 5.9l.5 4.3c.2 1.4-.4 2.7-1.4 3.6L14 27.8a2.3 2.3 0 00-3.4 0c-.4.4-.6 1-.6 1.6v.1h-.1a2.3 2.3 0 00-2 3.7l-1.7 1.6c-.2.2-.3.6 0 .8a.6.6 0 00.8.1l1.8-1.6 4.2 4.2-1.5 2c-.2.2-.2.6 0 .8a.6.6 0 001 0l1.5-2a2.3 2.3 0 002.7-.3c.5-.5.7-1.1.7-1.7h.1a2.3 2.3 0 002.3-2.3c0-.7-.2-1.3-.7-1.8l2.7-3.3a8 8 0 001.2-2 8 8 0 001.2 2l2.5 3-.3.3c-.4.5-.6 1-.6 1.7a2.3 2.3 0 002.3 2.4c0 .6.3 1.2.7 1.7a2.3 2.3 0 003 .2l1.7 2a.6.6 0 001 .1c.2-.2.2-.6 0-.9l-1.7-2 4.1-4.3 2 1.8a.6.6 0 001 0c.2-.3.1-.7-.1-1zm-24 3.1a1 1 0 01-1.4 0L9 32.6a1 1 0 01-.3-.8 1 1 0 011-1c.4 0 .6 0 .8.3l3.2 3.2 2 2a1 1 0 010 1.6zm2.5-2.4a1 1 0 01-1.6 0l-5.2-5.3a1 1 0 010-1.5 1 1 0 011.5 0l5.3 5.2a1 1 0 010 1.6zm4-26a10.6 10.6 0 00-2.8 7.3.6.6 0 00.7.6c.3 0 .6-.3.6-.7a8.2 8.2 0 011.6-5v12.8c0 1.6-.6 3.1-1.6 4.4L18.2 32l-3.3-3.4 1.7-1.5c1.3-1.1 2-2.9 1.8-4.6l-.5-4.4c-.2-1.8 0-3.6.8-5.2l3.7-8.5v5zm3 19.5a6.8 6.8 0 01-1.6-4.4v-13a8.9 8.9 0 011.6 5.2.6.6 0 00.6.7c.4 0 .7-.3.7-.6v-1.3c-.3-2.1-1.3-4.2-2.9-6v-5l3.7 8.5c.8 1.6 1 3.4.8 5.2l-.5 4.4c-.1 1.7.5 3.5 1.8 4.6l1.5 1.3-3.3 3.3-2.4-3zm2.1 6.6a1 1 0 010-1.6l5.3-5.2a1 1 0 011.5 0 1 1 0 010 1.5l-5.3 5.3a1 1 0 01-1.5 0zm9.2-2.9L31.2 38c-.4.4-1 .4-1.5 0a1 1 0 010-1.5L35 31a1 1 0 011.5 0c.2.2.3.5.3.7 0 .3-.1.6-.3.8z"/>
    </symbol>


    <symbol id="icon-about-tolerance" viewBox="0 0 45 45">
    <path d="M23.2 4h.6c6.1.4 11.6 4.1 14.2 9.7 1.2 2.8 1.3 6 .4 8.8l-.2.3-5 12.3v6.2c0 .4-.2.6-.5.7H17.3a.6.6 0 01-.6-.6v-5.7l-3.9.4a.7.7 0 01-.2 0 3.1 3.1 0 01-2.5-3.4v-.2l.4-5.7h-4a.6.6 0 01-.6-.9l3.8-6.2v-2.4A13.2 13.2 0 0122.2 4h1zm0 1.3h-.6A12 12 0 0011 17v3l-3.2 5.4h3.5c.3 0 .6.3.6.6v.1l-.4 6.4c-.2 1 .3 2 1.2 2.2h.2l4.5-.4.4.1v.1l.2.1v6h14V34.7l5-12.3c1-2.7 1-5.6-.2-8.2a15.6 15.6 0 00-13.7-9zm.6 5.2c2.3-2 5.8-1.7 7.9.5 2 2.2 2 5.5 0 7.7l-.2.2-7.2 7.2a.6.6 0 01-.5.1h-.5l-.1-.1-7.2-7.2a5.7 5.7 0 010-7.9c2-2.2 5.5-2.4 7.9-.5zm-6.9 1.2a4.4 4.4 0 00-.1 6.1l.1.2 6.9 6.8 6.8-6.8a4.4 4.4 0 000-6.3 4.4 4.4 0 00-6.1-.1l-.2.1v.1c-.3.3-.7.3-1 .1l-.1-.2a4.4 4.4 0 00-6.3 0zm3.2-.6a.6.6 0 110 1.2 2.5 2.5 0 00-1.8 4.4.6.6 0 01-1 .9 3.8 3.8 0 012.8-6.5z"/>
    </symbol>


    <symbol id="icon-about-trust" viewBox="0 0 45 45">
    <path d="M43.8 14.9l-8.3-8.4a.7.7 0 00-1 0l-4.2 4.2a.7.7 0 000 1l.4.4-1 1c-.5.5-1.5.7-2.3.3a6 6 0 00-5.3.2 4.6 4.6 0 00-2.7.2c-.8.3-1.7 0-2.3-.5l-1.7-1.7.2-.2a.7.7 0 000-1l-4.1-4.2a.7.7 0 00-1 0l-9.3 9.3c-.3.3-.3.7 0 1l4.2 4.2a.7.7 0 001 0l.2-.2 1.2 1.2c.3.3.5.7.6 1 .4 2.2 1.4 4.2 3 5.8l.2.2a2.5 2.5 0 000 3.5 2.5 2.5 0 002 .7 2.5 2.5 0 002.4 2.6 2.5 2.5 0 002.5 2.5 2.4 2.4 0 001.9-.8 2.3 2.3 0 002.9-1.4v.1a2.3 2.3 0 003.9-.8 2.3 2.3 0 003-.3 2.3 2.3 0 00.6-2.2c.4 0 .8-.3 1.1-.6a2.3 2.3 0 00.3-3l.5-.5c1.6-1.6 2.6-3.6 3-5.8 0-.4.3-.7.5-1l2.1-2 .4.3a.7.7 0 001 0l4.1-4.2a.7.7 0 000-1zm-38 4.3l-3-3.2L11 7.7l3.2 3.2-8.3 8.3zm8.4 12a1.1 1.1 0 01-1.9-.8 1.1 1.1 0 111.9.8zm2.6 2.6a1 1 0 01-1.6 0c-.4-.4-.4-1.1 0-1.6a1 1 0 011.6 0c.4.5.4 1.2 0 1.6zm2.5 2.5a1 1 0 01-1.6 0c-.4-.4-.4-1.1 0-1.5a1 1 0 011.6 0c.4.4.4 1.1 0 1.5zM31 31a1 1 0 01-1.4 0L23 24.3a.7.7 0 00-1 0c-.3.3-.3.7 0 1l7.2 7.2.2.7a1 1 0 01-1.6.7l-1.2-1.3L21 27a.7.7 0 00-1 0c-.2.3-.2.7 0 1l5.7 5.6a1 1 0 010 1.3 1 1 0 01-1.4 0l-6-6a.7.7 0 00-1 0c-.3.2-.3.7 0 1l4.5 4.4c.2.2.3.4.3.7a1 1 0 01-1.1 1 2.5 2.5 0 00-2.5-3 2.5 2.5 0 00-2.6-2.5 2.5 2.5 0 00-3-2.5l-.6-.5a9.5 9.5 0 01-2.6-5c0-.7-.4-1.3-1-1.8l-1.1-1.2 6.8-7 1.8 1.8a3.5 3.5 0 003.7.8l.6-.2-4.3 4.3a2.8 2.8 0 000 4 2.7 2.7 0 004 0l2-2.2.6.5.1.1 8 8.1c.2.2.3.4.3.7 0 .2 0 .5-.2.6zm4.3-10.3c-.5.5-.8 1.1-1 1.8-.3 1.9-1.2 3.6-2.5 5l-.6.5-4.3-4.3h.3c.4 0 .9-.1 1.3-.3a.7.7 0 00-.5-1.3c-1.8.8-3.9-1.2-4.1-1.5h-.1l-.6-.6.7-.7c.2-.2.2-.7 0-1a.7.7 0 00-1 0l-1.1 1.2-2.7 2.6a1.4 1.4 0 01-2.3-1c0-.3.1-.7.4-1l4.5-4.5a4.6 4.6 0 013.2-1.3c.7 0 1.3.1 2 .4 1.2.6 2.8.3 3.8-.7l1-1 5.6 5.7-2 2zM35 8l7.3 7.4-3.2 3.3-7.3-7.5L35 8zM5.2 16.1a.8.8 0 110 1.7.8.8 0 010-1.7zm34.6-.8a.8.8 0 100 1.7.8.8 0 000-1.7z"/>
    </symbol>

    <symbol id="icon-phone" viewBox="0 0 17 17">
      <path d="M16.6 13.4L14 10.8c-.5-.5-1.4-.5-2 0l-1.3 1.4-.2-.2c-.9-.4-2-1-3.2-2.3C6.1 8.5 5.5 7.4 5 6.5l-.1-.2.8-1 .5-.4c.5-.5.5-1.4 0-1.9L3.6.4c-.5-.5-1.4-.5-2 0l-.7.8a4.3 4.3 0 00-.8 2.2c-.4 2.8 1 5.5 4.5 9 5 5 8.9 4.6 9 4.6a4.4 4.4 0 002.2-.9l.8-.7c.5-.6.5-1.4 0-2z"/>
    </symbol>


  </defs>
</svg>